<svg version="1.1" viewBox="0.0 0.0 785.49343832021 230.48556430446195" fill="none" stroke="none" stroke-linecap="square" stroke-miterlimit="10" xmlns:xlink="http://www.w3.org/1999/xlink" xmlns="http://www.w3.org/2000/svg"><clipPath id="p.0"><path d="m0 0l785.4934 0l0 230.48557l-785.4934 0l0 -230.48557z" clip-rule="nonzero"/></clipPath><g clip-path="url(#p.0)"><path fill="#000000" fill-opacity="0.0" d="m0 0l785.4934 0l0 230.48557l-785.4934 0z" fill-rule="evenodd"/><path fill="#000000" fill-opacity="0.0" d="m44.25857 84.89512l186.77165 63.11811" fill-rule="evenodd"/><path stroke="#434343" stroke-width="1.0" stroke-linejoin="round" stroke-linecap="butt" stroke-dasharray="4.0,3.0" d="m44.25857 84.89512l186.77165 63.11811" fill-rule="evenodd"/><path fill="#000000" fill-opacity="0.0" d="m87.542984 83.66906l-33.66929 64.34646" fill-rule="evenodd"/><path stroke="#434343" stroke-width="1.0" stroke-linejoin="round" stroke-linecap="butt" stroke-dasharray="4.0,3.0" d="m87.542984 83.66906l-33.66929 64.34646" fill-rule="evenodd"/><path fill="#000000" fill-opacity="0.0" d="m135.62572 83.66677l154.45668 64.34646" fill-rule="evenodd"/><path stroke="#434343" stroke-width="1.0" stroke-linejoin="round" stroke-linecap="butt" stroke-dasharray="4.0,3.0" d="m135.62572 83.66677l154.45668 64.34646" fill-rule="evenodd"/><path fill="#000000" fill-opacity="0.0" d="m183.6887 84.01322l106.39369 64.00001" fill-rule="evenodd"/><path stroke="#434343" stroke-width="1.0" stroke-linejoin="round" stroke-linecap="butt" stroke-dasharray="4.0,3.0" d="m183.6887 84.01322l106.39369 64.00001" fill-rule="evenodd"/><path fill="#000000" fill-opacity="0.0" d="m231.0676 84.35968l-118.14172 63.65355" fill-rule="evenodd"/><path stroke="#434343" stroke-width="1.0" stroke-linejoin="round" stroke-linecap="butt" stroke-dasharray="4.0,3.0" d="m231.0676 84.35968l-118.14172 63.65355" fill-rule="evenodd"/><path fill="#000000" fill-opacity="0.0" d="m278.43475 84.73763l-106.45671 63.275597" fill-rule="evenodd"/><path stroke="#434343" stroke-width="1.0" stroke-linejoin="round" stroke-linecap="butt" stroke-dasharray="4.0,3.0" d="m278.43475 84.73763l-106.45671 63.275597" fill-rule="evenodd"/><path fill="#000000" fill-opacity="0.0" d="m22.897316 -0.605231l59.433067 0l0 26.141731l-59.433067 0z" fill-rule="evenodd"/><path fill="#000000" d="m56.357994 6.1187587l-0.984375 4.2812495l-0.359375 0l-0.03125 -1.0625q-0.0625 -0.59375 -0.234375 -1.046875q-0.171875 -0.46874952 -0.53125 -0.7968745q-0.34375 -0.34375 -0.890625 -0.53125q-0.53125 -0.1875 -1.1875 -0.1875q-1.75 0 -3.046875 0.953125q-1.671875 1.2187495 -2.625 3.4531245q-0.78125 1.828125 -0.78125 3.71875q0 1.921876 1.125 3.078126q1.125 1.140625 2.921875 1.140625q1.359375 0 2.40625 -0.609375q1.0625 -0.609375 1.984375 -1.859375l0.453125 0q-1.078125 1.703125 -2.390625 2.515625q-1.296875 0.796875 -3.125 0.796875q-1.625 0 -2.875 -0.671875q-1.25 -0.6875 -1.90625 -1.90625q-0.65625 -1.234375 -0.65625 -2.656251q0 -2.15625 1.15625 -4.203125q1.171875 -2.0625 3.1875 -3.2343745q2.03125 -1.171875 4.09375 -1.171875q0.96875 0 2.171875 0.453125q0.53125 0.203125 0.765625 0.203125q0.234375 0 0.40625 -0.09375q0.171875 -0.109375 0.59375 -0.5625l0.359375 0z" fill-rule="nonzero"/><path fill="#000000" d="m61.744713 9.759383l-2.3125 8.031251q-0.203125 0.703125 -0.203125 1.015625q0 0.265625 0.1875 0.40625q0.1875 0.140625 0.859375 0.1875l-0.078125 0.265625l-3.6875 0l0.109375 -0.265625q0.578125 -0.015625 0.765625 -0.09375q0.296875 -0.125 0.453125 -0.34375q0.234375 -0.328125 0.484375 -1.171875l1.65625 -5.765626q0.15625 -0.53125 0.15625 -0.609375q0.03125 -0.140625 0.03125 -0.265625q0 -0.265625 -0.140625 -0.40625q-0.140625 -0.140625 -0.375 -0.140625q-0.1875 0 -0.578125 0.09375l-0.09375 -0.265625l2.421875 -0.671875l0.34375 0z" fill-rule="nonzero"/><path fill="#000000" fill-opacity="0.0" d="m70.643 -0.605231l59.433067 0l0 26.141731l-59.433067 0z" fill-rule="evenodd"/><path fill="#000000" d="m104.103676 6.1187587l-0.984375 4.2812495l-0.359375 0l-0.03125 -1.0625q-0.0625 -0.59375 -0.23438263 -1.046875q-0.171875 -0.46874952 -0.53125 -0.7968745q-0.34375 -0.34375 -0.890625 -0.53125q-0.53125 -0.1875 -1.1875 -0.1875q-1.75 0 -3.046875 0.953125q-1.671875 1.2187495 -2.625 3.4531245q-0.78125 1.828125 -0.78125 3.71875q0 1.921876 1.125 3.078126q1.125 1.140625 2.921875 1.140625q1.359375 0 2.40625 -0.609375q1.0625 -0.609375 1.984375 -1.859375l0.453125 0q-1.078125 1.703125 -2.390625 2.515625q-1.296875 0.796875 -3.125 0.796875q-1.625 0 -2.875 -0.671875q-1.25 -0.6875 -1.90625 -1.90625q-0.65625 -1.234375 -0.65625 -2.656251q0 -2.15625 1.15625 -4.203125q1.171875 -2.0625 3.1875 -3.2343745q2.03125 -1.171875 4.09375 -1.171875q0.96875 0 2.171875 0.453125q0.53125 0.203125 0.7656326 0.203125q0.234375 0 0.40625 -0.09375q0.171875 -0.109375 0.59375 -0.5625l0.359375 0z" fill-rule="nonzero"/><path fill="#000000" d="m108.427895 19.665634l-4.828125 0l0 -0.265625q3.6875 -3.234375 4.875 -5.078126q0.546875 -0.84375 0.546875 -1.78125q0 -0.75 -0.453125 -1.21875q-0.453125 -0.46875 -1.1875 -0.46875q-1.015625 0 -1.65625 0.96875l-0.25 -0.109375q0.359375 -0.921875 1.0625 -1.4375q0.703125 -0.515625 1.515625 -0.515625q0.921875 0 1.546875 0.640625q0.640625 0.625 0.640625 1.53125q0 0.625 -0.234375 1.171875q-0.328125 0.828125 -1.265625 1.875q-1.390625 1.578126 -3.734375 3.656251l2.4375 0q0.578125 0 0.953125 -0.25q0.390625 -0.25 0.546875 -0.65625l0.296875 0l-0.8125 1.9375z" fill-rule="nonzero"/><path fill="#000000" fill-opacity="0.0" d="m118.38867 -0.605231l59.433075 0l0 26.141731l-59.433075 0z" fill-rule="evenodd"/><path fill="#000000" d="m151.84935 6.1187587l-0.984375 4.2812495l-0.359375 0l-0.03125 -1.0625q-0.0625 -0.59375 -0.234375 -1.046875q-0.171875 -0.46874952 -0.53125 -0.7968745q-0.34375 -0.34375 -0.890625 -0.53125q-0.53125 -0.1875 -1.1875 -0.1875q-1.75 0 -3.046875 0.953125q-1.671875 1.2187495 -2.625 3.4531245q-0.78125 1.828125 -0.78125 3.71875q0 1.921876 1.125 3.078126q1.125 1.140625 2.921875 1.140625q1.359375 0 2.40625 -0.609375q1.0625 -0.609375 1.984375 -1.859375l0.453125 0q-1.078125 1.703125 -2.390625 2.515625q-1.296875 0.796875 -3.125 0.796875q-1.625 0 -2.875 -0.671875q-1.25 -0.6875 -1.90625 -1.90625q-0.65625 -1.234375 -0.65625 -2.656251q0 -2.15625 1.15625 -4.203125q1.171875 -2.0625 3.1875 -3.2343745q2.03125 -1.171875 4.09375 -1.171875q0.96875 0 2.171875 0.453125q0.53125 0.203125 0.765625 0.203125q0.234375 0 0.40625 -0.09375q0.171875 -0.109375 0.59375 -0.5625l0.359375 0z" fill-rule="nonzero"/><path fill="#000000" d="m153.34544 14.368758l0 -0.21875q1.734375 -0.265625 2.59375 -1.03125q0.609375 -0.53125 0.609375 -1.296875q0 -0.5625 -0.359375 -0.921875q-0.359375 -0.375 -0.859375 -0.375q-0.8125 0 -1.421875 1.0l-0.265625 -0.078125q0.359375 -0.828125 0.9375 -1.25q0.59375 -0.4375 1.296875 -0.4375q0.84375 0 1.359375 0.515625q0.515625 0.5 0.515625 1.265625q0 0.65625 -0.484375 1.265625q-0.484375 0.609375 -1.6875 1.09375q0.75 0.3125 1.125 0.890625q0.375 0.5625 0.375 1.375001q0 0.890625 -0.515625 1.796875q-0.515625 0.890625 -1.40625 1.390625q-0.890625 0.484375 -1.890625 0.484375q-0.890625 0 -1.359375 -0.3125q-0.3125 -0.21875 -0.3125 -0.5q0 -0.25 0.1875 -0.421875q0.1875 -0.1875 0.4375 -0.1875q0.1875 0 0.375 0.0625q0.125 0.03125 0.5625 0.28125q0.453125 0.25 0.703125 0.328125q0.25 0.078125 0.515625 0.078125q0.640625 0 1.0625 -0.734375q0.421875 -0.75 0.421875 -1.59375q0 -0.6875 -0.296875 -1.218751q-0.28125 -0.546875 -0.890625 -0.875q-0.59375 -0.34375 -1.328125 -0.375z" fill-rule="nonzero"/><path fill="#000000" fill-opacity="0.0" d="m166.13435 -0.605231l59.433075 0l0 26.141731l-59.433075 0z" fill-rule="evenodd"/><path fill="#000000" d="m199.59503 6.1187587l-0.984375 4.2812495l-0.359375 0l-0.03125 -1.0625q-0.0625 -0.59375 -0.234375 -1.046875q-0.171875 -0.46874952 -0.53125 -0.7968745q-0.34375 -0.34375 -0.890625 -0.53125q-0.53125 -0.1875 -1.1875 -0.1875q-1.75 0 -3.046875 0.953125q-1.671875 1.2187495 -2.625 3.4531245q-0.78125 1.828125 -0.78125 3.71875q0 1.921876 1.125 3.078126q1.125 1.140625 2.921875 1.140625q1.359375 0 2.40625 -0.609375q1.0625 -0.609375 1.984375 -1.859375l0.453125 0q-1.078125 1.703125 -2.390625 2.515625q-1.296875 0.796875 -3.125 0.796875q-1.625 0 -2.875 -0.671875q-1.25 -0.6875 -1.90625 -1.90625q-0.65625 -1.234375 -0.65625 -2.656251q0 -2.15625 1.15625 -4.203125q1.171875 -2.0625 3.1875 -3.2343745q2.03125 -1.171875 4.09375 -1.171875q0.96875 0 2.171875 0.453125q0.53125 0.203125 0.765625 0.203125q0.234375 0 0.40625 -0.09375q0.171875 -0.109375 0.59375 -0.5625l0.359375 0z" fill-rule="nonzero"/><path fill="#000000" d="m205.99738 9.962508l-1.859375 6.375001l1.15625 0l-0.25 0.890625l-1.171875 0l-0.75 2.609375l-1.0625 0l0.765625 -2.609375l-3.515625 0l0.3125 -1.0l5.828125 -6.265626l0.546875 0zm-1.59375 1.84375l-4.171875 4.531251l2.875 0l1.296875 -4.531251z" fill-rule="nonzero"/><path fill="#000000" fill-opacity="0.0" d="m213.88004 -0.605231l59.433075 0l0 26.141731l-59.433075 0z" fill-rule="evenodd"/><path fill="#000000" d="m247.34071 6.1187587l-0.984375 4.2812495l-0.359375 0l-0.03125 -1.0625q-0.0625 -0.59375 -0.234375 -1.046875q-0.171875 -0.46874952 -0.53125 -0.7968745q-0.34375 -0.34375 -0.890625 -0.53125q-0.53125 -0.1875 -1.1875 -0.1875q-1.75 0 -3.046875 0.953125q-1.671875 1.2187495 -2.625 3.4531245q-0.78125 1.828125 -0.78125 3.71875q0 1.921876 1.125 3.078126q1.125 1.140625 2.921875 1.140625q1.359375 0 2.40625 -0.609375q1.0625 -0.609375 1.984375 -1.859375l0.453125 0q-1.078125 1.703125 -2.390625 2.515625q-1.296875 0.796875 -3.125 0.796875q-1.625 0 -2.875 -0.671875q-1.25 -0.6875 -1.90625 -1.90625q-0.65625 -1.234375 -0.65625 -2.656251q0 -2.15625 1.15625 -4.203125q1.171875 -2.0625 3.1875 -3.2343745q2.03125 -1.171875 4.09375 -1.171875q0.96875 0 2.171875 0.453125q0.53125 0.203125 0.765625 0.203125q0.234375 0 0.40625 -0.09375q0.171875 -0.109375 0.59375 -0.5625l0.359375 0z" fill-rule="nonzero"/><path fill="#000000" d="m250.38368 9.962508l3.234375 0l-0.328125 1.1875l-2.90625 0l-0.546875 1.1875q1.171875 0.1875 1.8125 0.71875q1.0 0.84375 1.0 2.34375q0 1.000001 -0.375 1.812501q-0.375 0.796875 -0.90625 1.34375q-0.53125 0.53125 -1.140625 0.859375q-0.828125 0.421875 -1.671875 0.421875q-0.71875 0 -1.140625 -0.3125q-0.296875 -0.21875 -0.296875 -0.546875q0 -0.25 0.1875 -0.4375q0.1875 -0.1875 0.46875 -0.1875q0.375 0 0.84375 0.375q0.28125 0.25 0.46875 0.328125q0.15625 0.0625 0.359375 0.0625q0.8125 0 1.484375 -0.796875q0.6875 -0.8125 0.6875 -2.109375q0 -0.89062595 -0.375 -1.515626q-0.359375 -0.640625 -0.921875 -0.890625q-0.546875 -0.265625 -1.484375 -0.359375l1.546875 -3.484375z" fill-rule="nonzero"/><path fill="#000000" fill-opacity="0.0" d="m261.6257 -0.605231l59.433075 0l0 26.141731l-59.433075 0z" fill-rule="evenodd"/><path fill="#000000" d="m295.0864 6.1187587l-0.984375 4.2812495l-0.359375 0l-0.03125 -1.0625q-0.0625 -0.59375 -0.234375 -1.046875q-0.171875 -0.46874952 -0.53125 -0.7968745q-0.34375 -0.34375 -0.890625 -0.53125q-0.53125 -0.1875 -1.1875 -0.1875q-1.75 0 -3.046875 0.953125q-1.671875 1.2187495 -2.625 3.4531245q-0.78125 1.828125 -0.78125 3.71875q0 1.921876 1.125 3.078126q1.125 1.140625 2.921875 1.140625q1.359375 0 2.40625 -0.609375q1.0625 -0.609375 1.984375 -1.859375l0.453125 0q-1.078125 1.703125 -2.390625 2.515625q-1.296875 0.796875 -3.125 0.796875q-1.625 0 -2.875 -0.671875q-1.25 -0.6875 -1.90625 -1.90625q-0.65625 -1.234375 -0.65625 -2.656251q0 -2.15625 1.15625 -4.203125q1.171875 -2.0625 3.1875 -3.2343745q2.03125 -1.171875 4.09375 -1.171875q0.96875 0 2.171875 0.453125q0.53125 0.203125 0.765625 0.203125q0.234375 0 0.40625 -0.09375q0.171875 -0.109375 0.59375 -0.5625l0.359375 0z" fill-rule="nonzero"/><path fill="#000000" d="m302.05124 9.759383l0 0.28125q-1.234375 0.28125 -2.390625 1.203125q-1.140625 0.921875 -2.0 2.359375q0.765625 -0.328125 1.25 -0.328125q0.90625 0 1.546875 0.65625q0.640625 0.65625 0.640625 1.78125q0 1.703126 -1.109375 2.921876q-1.09375 1.203125 -2.359375 1.203125q-1.15625 0 -1.765625 -0.84375q-0.59375 -0.859375 -0.59375 -1.984375q0 -1.468751 0.671875 -2.890626q0.6875 -1.4375 1.84375 -2.453125q1.171875 -1.03125 2.421875 -1.515625q0.75 -0.28125 1.84375 -0.390625zm-4.734375 4.453125q-1.03125 2.171876 -1.03125 3.656251q0 0.765625 0.390625 1.203125q0.390625 0.4375 0.890625 0.4375q0.8125 0 1.515625 -1.1875q0.71875 -1.203125 0.71875 -2.781251q0 -0.84375 -0.421875 -1.296875q-0.40625 -0.46875 -0.984375 -0.46875q-0.25 0 -0.484375 0.09375q-0.21875 0.078125 -0.59375 0.34375z" fill-rule="nonzero"/><path fill="#000000" fill-opacity="0.0" d="m524.2581 84.89512l186.77167 63.11811" fill-rule="evenodd"/><path stroke="#434343" stroke-width="1.0" stroke-linejoin="round" stroke-linecap="butt" stroke-dasharray="4.0,3.0" d="m529.9423 86.81605l175.40326 59.276253" fill-rule="evenodd"/><path fill="#434343" stroke="#434343" stroke-width="1.0" stroke-linecap="butt" d="m530.4711 85.25125l-4.828064 0.11190033l3.7704468 3.017685z" fill-rule="evenodd"/><path fill="#434343" stroke="#434343" stroke-width="1.0" stroke-linecap="butt" d="m704.8168 147.65709l4.828064 -0.1118927l-3.7704468 -3.0177002z" fill-rule="evenodd"/><path fill="#000000" fill-opacity="0.0" d="m573.75336 84.373245l-38.04724 62.708664" fill-rule="evenodd"/><path stroke="#434343" stroke-width="1.0" stroke-linejoin="round" stroke-linecap="butt" stroke-dasharray="4.0,3.0" d="m570.64105 89.5029l-31.822632 52.44934" fill-rule="evenodd"/><path fill="#434343" stroke="#434343" stroke-width="1.0" stroke-linecap="butt" d="m572.05316 90.359695l0.94189453 -4.7366104l-3.7661743 3.0230331z" fill-rule="evenodd"/><path fill="#434343" stroke="#434343" stroke-width="1.0" stroke-linecap="butt" d="m537.4063 141.09546l-0.94189453 4.736603l3.7661743 -3.0230255z" fill-rule="evenodd"/><path fill="#000000" fill-opacity="0.0" d="m621.452 84.01322l148.62994 64.00001" fill-rule="evenodd"/><path stroke="#b7b7b7" stroke-width="1.0" stroke-linejoin="round" stroke-linecap="butt" stroke-dasharray="4.0,3.0" d="m621.452 84.01322l148.62994 64.00001" fill-rule="evenodd"/><path fill="#000000" fill-opacity="0.0" d="m669.2001 83.66677l100.8819 64.34646" fill-rule="evenodd"/><path stroke="#434343" stroke-width="1.0" stroke-linejoin="round" stroke-linecap="butt" stroke-dasharray="4.0,3.0" d="m674.25867 86.89333l90.76471 57.893333" fill-rule="evenodd"/><path fill="#434343" stroke="#434343" stroke-width="1.0" stroke-linecap="butt" d="m675.14685 85.50076l-4.7142944 -1.0478363l2.9378662 3.8329773z" fill-rule="evenodd"/><path fill="#434343" stroke="#434343" stroke-width="1.0" stroke-linecap="butt" d="m764.13513 146.17923l4.7142944 1.0478363l-2.9378052 -3.8329773z" fill-rule="evenodd"/><path fill="#000000" fill-opacity="0.0" d="m715.85455 84.35968l-122.92914 63.65355" fill-rule="evenodd"/><path stroke="#434343" stroke-width="1.0" stroke-linejoin="round" stroke-linecap="butt" stroke-dasharray="4.0,3.0" d="m710.5265 87.11859l-112.27295 58.135727" fill-rule="evenodd"/><path fill="#434343" stroke="#434343" stroke-width="1.0" stroke-linecap="butt" d="m711.286 88.58536l3.2703857 -3.5534668l-4.7893677 0.61994934z" fill-rule="evenodd"/><path fill="#434343" stroke="#434343" stroke-width="1.0" stroke-linecap="butt" d="m597.494 143.78755l-3.2703857 3.5534668l4.7893677 -0.61994934z" fill-rule="evenodd"/><path fill="#000000" fill-opacity="0.0" d="m761.8044 84.73763l-109.82678 63.275597" fill-rule="evenodd"/><path stroke="#434343" stroke-width="1.0" stroke-linejoin="round" stroke-linecap="butt" stroke-dasharray="4.0,3.0" d="m756.60547 87.73292l-99.429016 57.285027" fill-rule="evenodd"/><path fill="#434343" stroke="#434343" stroke-width="1.0" stroke-linecap="butt" d="m757.43005 89.16411l3.107605 -3.6966705l-4.756714 0.8342819z" fill-rule="evenodd"/><path fill="#434343" stroke="#434343" stroke-width="1.0" stroke-linecap="butt" d="m656.3519 143.58676l-3.107605 3.6966705l4.756714 -0.83428955z" fill-rule="evenodd"/><path fill="#000000" fill-opacity="0.0" d="m691.042 100.273705l0 0c0 -3.1108322 2.5218506 -5.63266 5.6326904 -5.63266l119.66382 0c1.4938354 0 2.9265137 0.5934372 3.9828491 1.649765c1.0563354 1.0563354 1.6497803 2.4890213 1.6497803 3.982895l0 22.52996c0 3.1108322 -2.5218506 5.63266 -5.6326294 5.63266l-119.66382 0c-3.1108398 0 -5.6326904 -2.5218277 -5.6326904 -5.63266z" fill-rule="evenodd"/><path fill="#000000" d="m758.7058 104.206184l-3.578125 12.296875q-0.28125 1.0 -0.28125 1.3125q0 0.09375 0.078125 0.1875q0.09375 0.09375 0.1875 0.09375q0.140625 0 0.328125 -0.125q0.34375 -0.25 1.1875 -1.25l0.34375 0.21875q-0.75 1.03125 -1.515625 1.6875q-0.765625 0.640625 -1.421875 0.640625q-0.359375 0 -0.59375 -0.25q-0.21875 -0.25 -0.21875 -0.703125q0 -0.59375 0.3125 -1.59375l0.40625 -1.296875q-1.515625 2.328125 -2.75 3.234375q-0.859375 0.609375 -1.640625 0.609375q-0.796875 0 -1.390625 -0.703125q-0.578125 -0.703125 -0.578125 -1.90625q0 -1.5625 0.984375 -3.3125q1.0 -1.765625 2.625 -2.875q1.28125 -0.875 2.34375 -0.875q0.5625 0 0.96875 0.234375q0.40625 0.21875 0.8125 0.75l1.015625 -3.625q0.109375 -0.375 0.1875 -0.609375q0.125 -0.421875 0.125 -0.6875q0 -0.21875 -0.15625 -0.359375q-0.21875 -0.1875 -0.5625 -0.1875q-0.234375 0 -0.796875 0.078125l0 -0.390625l3.578125 -0.59375zm-3.859375 7.390625q0 -0.65625 -0.390625 -1.0625q-0.375 -0.40625 -0.96875 -0.40625q-1.3125 0 -2.734375 2.171875q-1.421875 2.15625 -1.421875 4.140625q0 0.78125 0.34375 1.1875q0.34375 0.40625 0.828125 0.40625q1.078125 0 2.703125 -2.34375q1.640625 -2.34375 1.640625 -4.09375z" fill-rule="nonzero"/><path fill="#000000" d="m761.3855 111.94056l-0.546875 1.796875q0.859375 -1.0 1.515625 -1.390625q0.671875 -0.40625 1.375 -0.40625q0.6875 0 1.171875 0.5625q0.5 0.546875 0.5 1.421875q0 1.71875 -1.40625 3.5q-1.390625 1.78125 -3.25 1.78125q-0.390625 0 -0.6875 -0.09375q-0.296875 -0.078125 -0.671875 -0.296875l-0.578125 2.015625q-0.171875 0.59375 -0.171875 0.78125q0 0.171875 0.09375 0.28125q0.09375 0.125 0.296875 0.1875q0.203125 0.078125 0.796875 0.078125l-0.0625 0.28125l-3.6875 0l0.078125 -0.28125q0.71875 -0.03125 0.984375 -0.25q0.25 -0.21875 0.53125 -1.21875l1.984375 -6.84375q0.171875 -0.65625 0.171875 -0.8125q0 -0.203125 -0.125 -0.3125q-0.109375 -0.125 -0.359375 -0.125q-0.234375 0 -0.640625 0.046875l0 -0.296875l2.6875 -0.40625zm-1.828125 6.25q0.484375 0.578125 1.3125 0.578125q0.40625 0 0.828125 -0.21875q0.421875 -0.234375 0.8125 -0.671875q0.40625 -0.453125 0.71875 -1.03125q0.328125 -0.578125 0.578125 -1.359375q0.265625 -0.796875 0.265625 -1.578125q0 -0.625 -0.296875 -0.953125q-0.28125 -0.328125 -0.65625 -0.328125q-0.84375 0 -1.671875 0.96875q-0.828125 0.96875 -1.203125 2.265625l-0.6875 2.328125z" fill-rule="nonzero"/><path fill="#000000" fill-opacity="0.0" d="m270.3665 90.29076l0 0c0 -5.7258987 4.641754 -10.3676605 10.367676 -10.3676605l251.1702 0c2.7496338 0 5.3867188 1.0923004 7.3310547 3.0366135c1.9442749 1.944313 3.036621 4.581375 3.036621 7.331047l0 41.469406c0 5.725891 -4.6417847 10.3676605 -10.367676 10.3676605l-251.1702 0c-5.7259216 0 -10.367676 -4.6417694 -10.367676 -10.3676605z" fill-rule="evenodd"/><path fill="#000000" d="m299.81198 117.16546l-3.59375 -10.328125l-0.0625 0q0.140625 2.296875 0.140625 4.3125l0 6.015625l-1.828125 0l0 -12.375l2.84375 0l3.4375 9.84375l0.046875 0l3.53125 -9.84375l2.859375 0l0 12.375l-1.9375 0l0 -6.125q0 -0.921875 0.046875 -2.390625q0.046875 -1.484375 0.078125 -1.796875l-0.0625 0l-3.71875 10.3125l-1.78125 0zm16.288147 0l-0.40625 -1.296875l-0.0625 0q-0.671875 0.84375 -1.359375 1.15625q-0.6875 0.3125 -1.765625 0.3125q-1.375 0 -2.15625 -0.734375q-0.765625 -0.75 -0.765625 -2.125q0 -1.4375 1.0625 -2.171875q1.078125 -0.734375 3.28125 -0.8125l1.609375 -0.046875l0 -0.5q0 -0.890625 -0.421875 -1.328125q-0.40625 -0.453125 -1.28125 -0.453125q-0.71875 0 -1.390625 0.21875q-0.65625 0.203125 -1.265625 0.484375l-0.640625 -1.421875q0.765625 -0.390625 1.671875 -0.59375q0.90625 -0.21875 1.703125 -0.21875q1.78125 0 2.6875 0.78125q0.921875 0.78125 0.921875 2.453125l0 6.296875l-1.421875 0zm-2.96875 -1.359375q1.078125 0 1.734375 -0.59375q0.65625 -0.609375 0.65625 -1.703125l0 -0.8125l-1.1875 0.046875q-1.40625 0.0625 -2.046875 0.484375q-0.640625 0.40625 -0.640625 1.265625q0 0.625 0.375 0.96875q0.375 0.34375 1.109375 0.34375zm10.645416 -0.078125q0.734375 0 1.453125 -0.234375l0 1.5q-0.328125 0.140625 -0.859375 0.234375q-0.515625 0.109375 -1.0625 0.109375q-2.828125 0 -2.828125 -2.984375l0 -5.046875l-1.28125 0l0 -0.875l1.375 -0.71875l0.671875 -1.984375l1.234375 0l0 2.078125l2.65625 0l0 1.5l-2.65625 0l0 5.015625q0 0.71875 0.359375 1.0625q0.359375 0.34375 0.9375 0.34375zm7.0923767 1.609375q-2.109375 0 -3.21875 -1.234375q-1.109375 -1.25 -1.109375 -3.5625q0 -2.359375 1.15625 -3.625q1.15625 -1.28125 3.34375 -1.28125q1.484375 0 2.65625 0.546875l-0.59375 1.609375q-1.265625 -0.5 -2.078125 -0.5q-2.4375 0 -2.4375 3.234375q0 1.5625 0.609375 2.359375q0.609375 0.796875 1.765625 0.796875q1.328125 0 2.515625 -0.671875l0 1.734375q-0.53125 0.328125 -1.140625 0.453125q-0.59375 0.140625 -1.46875 0.140625zm13.048187 -0.171875l-2.0 0l0 -5.75q0 -1.09375 -0.4375 -1.625q-0.4375 -0.53125 -1.375 -0.53125q-1.265625 0 -1.859375 0.75q-0.578125 0.75 -0.578125 2.515625l0 4.640625l-1.984375 0l0 -13.171875l1.984375 0l0 3.34375q0 0.8125 -0.09375 1.71875l0.125 0q0.40625 -0.671875 1.125 -1.046875q0.71875 -0.375 1.6875 -0.375q3.40625 0 3.40625 3.4375l0 6.09375zm4.749298 0l-1.984375 0l0 -9.359375l1.984375 0l0 9.359375zm-2.109375 -11.84375q0 -0.53125 0.296875 -0.8125q0.296875 -0.296875 0.828125 -0.296875q0.53125 0 0.8125 0.296875q0.296875 0.28125 0.296875 0.8125q0 0.515625 -0.296875 0.8125q-0.28125 0.28125 -0.8125 0.28125q-0.53125 0 -0.828125 -0.28125q-0.296875 -0.296875 -0.296875 -0.8125zm13.190613 11.84375l-2.0 0l0 -5.75q0 -1.09375 -0.4375 -1.625q-0.4375 -0.53125 -1.375 -0.53125q-1.265625 0 -1.859375 0.75q-0.578125 0.75 -0.578125 2.5l0 4.65625l-1.984375 0l0 -9.359375l1.5625 0l0.265625 1.234375l0.109375 0q0.421875 -0.671875 1.203125 -1.03125q0.78125 -0.375 1.71875 -0.375q3.375 0 3.375 3.4375l0 6.09375zm10.671173 -9.359375l0 1.09375l-1.609375 0.296875q0.21875 0.296875 0.359375 0.734375q0.15625 0.421875 0.15625 0.90625q0 1.453125 -1.0 2.28125q-1.0 0.828125 -2.75 0.828125q-0.453125 0 -0.8125 -0.078125q-0.640625 0.40625 -0.640625 0.9375q0 0.3125 0.296875 0.484375q0.296875 0.15625 1.109375 0.15625l1.625 0q1.546875 0 2.34375 0.671875q0.8125 0.65625 0.8125 1.890625q0 1.59375 -1.3125 2.453125q-1.3125 0.859375 -3.78125 0.859375q-1.921875 0 -2.9375 -0.671875q-1.0 -0.671875 -1.0 -1.921875q0 -0.875 0.546875 -1.46875q0.546875 -0.578125 1.53125 -0.796875q-0.390625 -0.171875 -0.65625 -0.546875q-0.25 -0.390625 -0.25 -0.796875q0 -0.53125 0.296875 -0.890625q0.296875 -0.359375 0.875 -0.71875q-0.734375 -0.3125 -1.1875 -1.015625q-0.453125 -0.703125 -0.453125 -1.65625q0 -1.53125 0.953125 -2.359375q0.96875 -0.84375 2.75 -0.84375q0.390625 0 0.828125 0.0625q0.4375 0.046875 0.65625 0.109375l3.25 0zm-7.359375 10.8125q0 0.640625 0.578125 0.984375q0.578125 0.359375 1.640625 0.359375q1.609375 0 2.40625 -0.46875q0.796875 -0.46875 0.796875 -1.234375q0 -0.609375 -0.4375 -0.875q-0.4375 -0.25 -1.609375 -0.25l-1.515625 0q-0.84375 0 -1.359375 0.390625q-0.5 0.40625 -0.5 1.09375zm0.859375 -7.78125q0 0.875 0.453125 1.359375q0.453125 0.46875 1.296875 0.46875q1.71875 0 1.71875 -1.84375q0 -0.921875 -0.421875 -1.40625q-0.421875 -0.5 -1.296875 -0.5q-0.859375 0 -1.3125 0.5q-0.4375 0.484375 -0.4375 1.421875zm77.012726 0.03125q0 3.0625 -1.703125 4.6875q-1.6875 1.609375 -4.890625 1.609375l-3.453125 0l0 -12.375l3.8125 0q2.953125 0 4.59375 1.59375q1.640625 1.59375 1.640625 4.484375zm-2.125 0.0625q0 -4.4375 -4.15625 -4.4375l-1.75 0l0 8.96875l1.4375 0q4.46875 0 4.46875 -4.53125zm6.5606384 6.234375l-1.984375 0l0 -9.359375l1.984375 0l0 9.359375zm-2.109375 -11.84375q0 -0.53125 0.296875 -0.8125q0.296875 -0.296875 0.828125 -0.296875q0.53125 0 0.8125 0.296875q0.296875 0.28125 0.296875 0.8125q0 0.515625 -0.296875 0.8125q-0.28125 0.28125 -0.8125 0.28125q-0.53125 0 -0.828125 -0.28125q-0.296875 -0.296875 -0.296875 -0.8125zm11.237488 9.171875q0 1.375 -1.0 2.109375q-0.984375 0.734375 -2.859375 0.734375q-1.859375 0 -3.0 -0.5625l0 -1.71875q1.65625 0.75 3.078125 0.75q1.828125 0 1.828125 -1.109375q0 -0.34375 -0.203125 -0.578125q-0.203125 -0.25 -0.671875 -0.5q-0.453125 -0.25 -1.28125 -0.578125q-1.625 -0.625 -2.203125 -1.25q-0.5625 -0.625 -0.5625 -1.625q0 -1.203125 0.96875 -1.859375q0.96875 -0.671875 2.640625 -0.671875q1.640625 0 3.125 0.671875l-0.65625 1.5q-1.515625 -0.625 -2.546875 -0.625q-1.5625 0 -1.5625 0.890625q0 0.4375 0.40625 0.75q0.40625 0.296875 1.78125 0.828125q1.171875 0.453125 1.6875 0.828125q0.53125 0.375 0.78125 0.859375q0.25 0.484375 0.25 1.15625zm5.6387634 1.234375q0.734375 0 1.453125 -0.234375l0 1.5q-0.328125 0.140625 -0.859375 0.234375q-0.515625 0.109375 -1.0625 0.109375q-2.828125 0 -2.828125 -2.984375l0 -5.046875l-1.28125 0l0 -0.875l1.375 -0.71875l0.671875 -1.984375l1.234375 0l0 2.078125l2.65625 0l0 1.5l-2.65625 0l0 5.015625q0 0.71875 0.359375 1.0625q0.359375 0.34375 0.9375 0.34375zm5.311096 1.4375l-1.984375 0l0 -9.359375l1.984375 0l0 9.359375zm-2.109375 -11.84375q0 -0.53125 0.296875 -0.8125q0.296875 -0.296875 0.828125 -0.296875q0.53125 0 0.8125 0.296875q0.296875 0.28125 0.296875 0.8125q0 0.515625 -0.296875 0.8125q-0.28125 0.28125 -0.8125 0.28125q-0.53125 0 -0.828125 -0.28125q-0.296875 -0.296875 -0.296875 -0.8125zm6.940613 11.84375l-1.984375 0l0 -13.171875l1.984375 0l0 13.171875zm4.831238 0l-1.984375 0l0 -13.171875l1.984375 0l0 13.171875zm8.706238 0l-0.40625 -1.296875l-0.0625 0q-0.671875 0.84375 -1.359375 1.15625q-0.6875 0.3125 -1.765625 0.3125q-1.375 0 -2.15625 -0.734375q-0.765625 -0.75 -0.765625 -2.125q0 -1.4375 1.0625 -2.171875q1.078125 -0.734375 3.28125 -0.8125l1.609375 -0.046875l0 -0.5q0 -0.890625 -0.421875 -1.328125q-0.40625 -0.453125 -1.28125 -0.453125q-0.71875 0 -1.390625 0.21875q-0.65625 0.203125 -1.265625 0.484375l-0.640625 -1.421875q0.765625 -0.390625 1.671875 -0.59375q0.90625 -0.21875 1.703125 -0.21875q1.78125 0 2.6875 0.78125q0.921875 0.78125 0.921875 2.453125l0 6.296875l-1.421875 0zm-2.96875 -1.359375q1.078125 0 1.734375 -0.59375q0.65625 -0.609375 0.65625 -1.703125l0 -0.8125l-1.1875 0.046875q-1.40625 0.0625 -2.046875 0.484375q-0.640625 0.40625 -0.640625 1.265625q0 0.625 0.375 0.96875q0.375 0.34375 1.109375 0.34375zm10.645416 -0.078125q0.734375 0 1.453125 -0.234375l0 1.5q-0.328125 0.140625 -0.859375 0.234375q-0.515625 0.109375 -1.0625 0.109375q-2.828125 0 -2.828125 -2.984375l0 -5.046875l-1.28125 0l0 -0.875l1.375 -0.71875l0.671875 -1.984375l1.234375 0l0 2.078125l2.65625 0l0 1.5l-2.65625 0l0 5.015625q0 0.71875 0.359375 1.0625q0.359375 0.34375 0.9375 0.34375zm5.3111267 1.4375l-1.984375 0l0 -9.359375l1.984375 0l0 9.359375zm-2.109375 -11.84375q0 -0.53125 0.296875 -0.8125q0.296875 -0.296875 0.828125 -0.296875q0.53125 0 0.8125 0.296875q0.296875 0.28125 0.296875 0.8125q0 0.515625 -0.296875 0.8125q-0.28125 0.28125 -0.8125 0.28125q-0.53125 0 -0.828125 -0.28125q-0.296875 -0.296875 -0.296875 -0.8125zm13.253113 7.140625q0 2.296875 -1.171875 3.59375q-1.171875 1.28125 -3.28125 1.28125q-1.3125 0 -2.3125 -0.59375q-1.0 -0.59375 -1.546875 -1.703125q-0.546875 -1.109375 -0.546875 -2.578125q0 -2.265625 1.171875 -3.546875q1.171875 -1.28125 3.296875 -1.28125q2.03125 0 3.203125 1.3125q1.1875 1.3125 1.1875 3.515625zm-6.8125 0q0 3.25 2.40625 3.25q2.359375 0 2.359375 -3.25q0 -3.203125 -2.390625 -3.203125q-1.25 0 -1.8125 0.828125q-0.5625 0.828125 -0.5625 2.375zm17.334686 4.703125l-2.0 0l0 -5.75q0 -1.09375 -0.4375 -1.625q-0.4375 -0.53125 -1.375 -0.53125q-1.265625 0 -1.859375 0.75q-0.578125 0.75 -0.578125 2.5l0 4.65625l-1.9843445 0l0 -9.359375l1.5625 0l0.26559448 1.234375l0.109375 0q0.421875 -0.671875 1.203125 -1.03125q0.78125 -0.375 1.71875 -0.375q3.375 0 3.375 3.4375l0 6.09375z" fill-rule="nonzero"/><path fill="#000000" fill-opacity="0.0" d="m421.74658 114.762924l-39.24408 0" fill-rule="evenodd"/><path stroke="#434343" stroke-width="1.0" stroke-linejoin="round" stroke-linecap="butt" d="m418.31952 114.76292l-35.817017 0" fill-rule="evenodd"/><path fill="#434343" stroke="#434343" stroke-width="1.0" stroke-linecap="butt" d="m418.31952 114.76292l-1.1246033 1.124588l3.0897827 -1.124588l-3.0897827 -1.1245804z" fill-rule="evenodd"/><path fill="#000000" fill-opacity="0.0" d="m416.88046 107.289l-39.24408 0" fill-rule="evenodd"/><path stroke="#434343" stroke-width="1.0" stroke-linejoin="round" stroke-linecap="butt" d="m416.88046 107.289l-35.817017 0" fill-rule="evenodd"/><path fill="#434343" stroke="#434343" stroke-width="1.0" stroke-linecap="butt" d="m381.06345 107.289l1.1245728 -1.1245804l-3.0897522 1.1245804l3.0897522 1.1245804z" fill-rule="evenodd"/><path fill="#000000" fill-opacity="0.0" d="m294.3035 125.24756l0 0c0 -2.983261 2.4184265 -5.40168 5.401703 -5.40168l213.22809 0c1.4326172 0 2.8065796 0.56910706 3.81958 1.5821152c1.0130005 1.0130157 1.5821533 2.3869553 1.5821533 3.8195648l0 21.60608c0 2.9832764 -2.418457 5.4016876 -5.4017334 5.4016876l-213.22809 0c-2.9832764 0 -5.401703 -2.4184113 -5.401703 -5.4016876z" fill-rule="evenodd"/><path fill="#000000" d="m331.1833 141.1306l-0.234375 -1.109375l-0.046875 0q-0.59375 0.734375 -1.1875 1.0q-0.578125 0.25 -1.453125 0.25q-1.15625 0 -1.828125 -0.59375q-0.65625 -0.609375 -0.65625 -1.71875q0 -2.375 3.796875 -2.484375l1.328125 -0.046875l0 -0.484375q0 -0.921875 -0.390625 -1.359375q-0.390625 -0.4375 -1.265625 -0.4375q-0.984375 0 -2.21875 0.59375l-0.375 -0.90625q0.578125 -0.3125 1.265625 -0.484375q0.703125 -0.1875 1.390625 -0.1875q1.40625 0 2.078125 0.625q0.6875 0.609375 0.6875 1.984375l0 5.359375l-0.890625 0zm-2.671875 -0.84375q1.109375 0 1.734375 -0.59375q0.640625 -0.609375 0.640625 -1.71875l0 -0.703125l-1.1875 0.046875q-1.421875 0.0625 -2.046875 0.453125q-0.625 0.375 -0.625 1.203125q0 0.640625 0.390625 0.984375q0.390625 0.328125 1.09375 0.328125zm7.1979675 0.84375l-1.1875 0l0 -11.140625l1.1875 0l0 11.140625zm5.0507507 -0.84375q0.3125 0 0.59375 -0.046875q0.296875 -0.046875 0.46875 -0.09375l0 0.90625q-0.1875 0.09375 -0.5625 0.15625q-0.375 0.0625 -0.671875 0.0625q-2.28125 0 -2.28125 -2.390625l0 -4.671875l-1.125 0l0 -0.578125l1.125 -0.484375l0.5 -1.671875l0.6875 0l0 1.8125l2.28125 0l0 0.921875l-2.28125 0l0 4.625q0 0.703125 0.328125 1.078125q0.34375 0.375 0.9375 0.375zm5.9553223 0.984375q-1.75 0 -2.75 -1.046875q-1.0 -1.0625 -1.0 -2.953125q0 -1.890625 0.921875 -3.0q0.9375 -1.125 2.515625 -1.125q1.46875 0 2.328125 0.96875q0.859375 0.96875 0.859375 2.5625l0 0.75l-5.40625 0q0.046875 1.375 0.703125 2.09375q0.65625 0.71875 1.859375 0.71875q1.265625 0 2.515625 -0.53125l0 1.0625q-0.640625 0.265625 -1.203125 0.375q-0.546875 0.125 -1.34375 0.125zm-0.328125 -7.125q-0.9375 0 -1.5 0.609375q-0.5625 0.609375 -0.671875 1.703125l4.109375 0q0 -1.125 -0.5 -1.71875q-0.5 -0.59375 -1.4375 -0.59375zm8.816406 -1.0q0.515625 0 0.9375 0.078125l-0.171875 1.109375q-0.484375 -0.109375 -0.859375 -0.109375q-0.953125 0 -1.625 0.78125q-0.671875 0.765625 -0.671875 1.921875l0 4.203125l-1.1875 0l0 -7.84375l0.96875 0l0.140625 1.453125l0.0625 0q0.4375 -0.765625 1.046875 -1.171875q0.609375 -0.421875 1.359375 -0.421875zm7.763977 7.984375l0 -5.078125q0 -0.953125 -0.4375 -1.421875q-0.4375 -0.484375 -1.359375 -0.484375q-1.234375 0 -1.8125 0.671875q-0.5625 0.671875 -0.5625 2.203125l0 4.109375l-1.1875 0l0 -7.84375l0.953125 0l0.203125 1.078125l0.046875 0q0.375 -0.578125 1.03125 -0.890625q0.65625 -0.328125 1.46875 -0.328125q1.421875 0 2.125 0.6875q0.71875 0.671875 0.71875 2.1875l0 5.109375l-1.1875 0zm8.4487 0l-0.234375 -1.109375l-0.046875 0q-0.59375 0.734375 -1.1875 1.0q-0.578125 0.25 -1.453125 0.25q-1.15625 0 -1.828125 -0.59375q-0.65625 -0.609375 -0.65625 -1.71875q0 -2.375 3.796875 -2.484375l1.328125 -0.046875l0 -0.484375q0 -0.921875 -0.390625 -1.359375q-0.390625 -0.4375 -1.265625 -0.4375q-0.984375 0 -2.21875 0.59375l-0.375 -0.90625q0.578125 -0.3125 1.265625 -0.484375q0.703125 -0.1875 1.390625 -0.1875q1.40625 0 2.078125 0.625q0.6875 0.609375 0.6875 1.984375l0 5.359375l-0.890625 0zm-2.671875 -0.84375q1.109375 0 1.734375 -0.59375q0.640625 -0.609375 0.640625 -1.71875l0 -0.703125l-1.1875 0.046875q-1.421875 0.0625 -2.046875 0.453125q-0.625 0.375 -0.625 1.203125q0 0.640625 0.390625 0.984375q0.390625 0.328125 1.09375 0.328125zm8.541718 0q0.3125 0 0.59375 -0.046875q0.296875 -0.046875 0.46875 -0.09375l0 0.90625q-0.1875 0.09375 -0.5625 0.15625q-0.375 0.0625 -0.671875 0.0625q-2.28125 0 -2.28125 -2.390625l0 -4.671875l-1.125 0l0 -0.578125l1.125 -0.484375l0.5 -1.671875l0.6875 0l0 1.8125l2.28125 0l0 0.921875l-2.28125 0l0 4.625q0 0.703125 0.328125 1.078125q0.34375 0.375 0.9375 0.375zm3.8303223 0.84375l-1.1875 0l0 -7.84375l1.1875 0l0 7.84375zm-1.296875 -9.96875q0 -0.40625 0.203125 -0.59375q0.203125 -0.1875 0.5 -0.1875q0.28125 0 0.484375 0.1875q0.21875 0.1875 0.21875 0.59375q0 0.40625 -0.21875 0.609375q-0.203125 0.1875 -0.484375 0.1875q-0.296875 0 -0.5 -0.1875q-0.203125 -0.203125 -0.203125 -0.609375zm5.5351257 9.96875l-2.984375 -7.84375l1.28125 0l1.6875 4.65625q0.5625 1.625 0.671875 2.109375l0.046875 0q0.078125 -0.375 0.5 -1.5625q0.421875 -1.1875 1.875 -5.203125l1.28125 0l-2.984375 7.84375l-1.375 0zm8.936188 0.140625q-1.75 0 -2.75 -1.046875q-1.0 -1.0625 -1.0 -2.953125q0 -1.890625 0.921875 -3.0q0.9375 -1.125 2.515625 -1.125q1.46875 0 2.328125 0.96875q0.859375 0.96875 0.859375 2.5625l0 0.75l-5.40625 0q0.046875 1.375 0.703125 2.09375q0.65625 0.71875 1.859375 0.71875q1.265625 0 2.515625 -0.53125l0 1.0625q-0.640625 0.265625 -1.203125 0.375q-0.546875 0.125 -1.34375 0.125zm-0.328125 -7.125q-0.9375 0 -1.5 0.609375q-0.5625 0.609375 -0.671875 1.703125l4.109375 0q0 -1.125 -0.5 -1.71875q-0.5 -0.59375 -1.4375 -0.59375zm15.811096 3.0625q0 1.90625 -0.96875 2.984375q-0.96875 1.078125 -2.671875 1.078125q-1.046875 0 -1.875 -0.484375q-0.8125 -0.5 -1.25 -1.421875q-0.4375 -0.921875 -0.4375 -2.15625q0 -1.921875 0.953125 -2.984375q0.953125 -1.078125 2.65625 -1.078125q1.65625 0 2.625 1.09375q0.96875 1.09375 0.96875 2.96875zm-5.984375 0q0 1.5 0.59375 2.28125q0.609375 0.78125 1.78125 0.78125q1.171875 0 1.765625 -0.78125q0.609375 -0.78125 0.609375 -2.28125q0 -1.5 -0.609375 -2.28125q-0.59375 -0.78125 -1.78125 -0.78125q-1.171875 0 -1.765625 0.765625q-0.59375 0.765625 -0.59375 2.296875zm11.7118225 4.0625q-0.765625 0 -1.40625 -0.28125q-0.625 -0.28125 -1.046875 -0.875l-0.09375 0q0.09375 0.6875 0.09375 1.3125l0 3.21875l-1.1875 0l0 -11.359375l0.953125 0l0.171875 1.078125l0.0625 0q0.453125 -0.640625 1.0625 -0.921875q0.609375 -0.296875 1.390625 -0.296875q1.5625 0 2.40625 1.0625q0.859375 1.0625 0.859375 3.0q0 1.921875 -0.875 3.0q-0.859375 1.0625 -2.390625 1.0625zm-0.171875 -7.125q-1.203125 0 -1.734375 0.671875q-0.53125 0.671875 -0.546875 2.125l0 0.265625q0 1.640625 0.546875 2.359375q0.546875 0.703125 1.765625 0.703125q1.015625 0 1.59375 -0.8125q0.578125 -0.828125 0.578125 -2.265625q0 -1.46875 -0.578125 -2.25q-0.578125 -0.796875 -1.625 -0.796875zm8.043732 6.140625q0.3125 0 0.59375 -0.046875q0.296875 -0.046875 0.46875 -0.09375l0 0.90625q-0.1875 0.09375 -0.5625 0.15625q-0.375 0.0625 -0.671875 0.0625q-2.28125 0 -2.28125 -2.390625l0 -4.671875l-1.125 0l0 -0.578125l1.125 -0.484375l0.5 -1.671875l0.6875 0l0 1.8125l2.28125 0l0 0.921875l-2.28125 0l0 4.625q0 0.703125 0.328125 1.078125q0.34375 0.375 0.9375 0.375zm3.8303223 0.84375l-1.1875 0l0 -7.84375l1.1875 0l0 7.84375zm-1.296875 -9.96875q0 -0.40625 0.203125 -0.59375q0.203125 -0.1875 0.5 -0.1875q0.28125 0 0.484375 0.1875q0.21875 0.1875 0.21875 0.59375q0 0.40625 -0.21875 0.609375q-0.203125 0.1875 -0.484375 0.1875q-0.296875 0 -0.5 -0.1875q-0.203125 -0.203125 -0.203125 -0.609375zm13.800751 9.96875l0 -5.109375q0 -0.9375 -0.40625 -1.40625q-0.390625 -0.46875 -1.234375 -0.46875q-1.109375 0 -1.640625 0.640625q-0.53125 0.640625 -0.53125 1.96875l0 4.375l-1.1875 0l0 -5.109375q0 -0.9375 -0.40625 -1.40625q-0.390625 -0.46875 -1.25 -0.46875q-1.109375 0 -1.625 0.671875q-0.515625 0.671875 -0.515625 2.203125l0 4.109375l-1.1875 0l0 -7.84375l0.953125 0l0.203125 1.078125l0.046875 0q0.34375 -0.578125 0.953125 -0.890625q0.609375 -0.328125 1.375 -0.328125q1.84375 0 2.40625 1.328125l0.046875 0q0.359375 -0.609375 1.015625 -0.96875q0.671875 -0.359375 1.53125 -0.359375q1.328125 0 1.984375 0.6875q0.65625 0.671875 0.65625 2.1875l0 5.109375l-1.1875 0zm4.8359985 0l-1.1875 0l0 -7.84375l1.1875 0l0 7.84375zm-1.296875 -9.96875q0 -0.40625 0.203125 -0.59375q0.203125 -0.1875 0.5 -0.1875q0.28125 0 0.484375 0.1875q0.21875 0.1875 0.21875 0.59375q0 0.40625 -0.21875 0.609375q-0.203125 0.1875 -0.484375 0.1875q-0.296875 0 -0.5 -0.1875q-0.203125 -0.203125 -0.203125 -0.609375zm8.832001 9.96875l-5.6875 0l0 -0.8125l4.265625 -6.109375l-4.0 0l0 -0.921875l5.3125 0l0 0.921875l-4.21875 6.0l4.328125 0l0 0.921875zm6.6526794 0l-0.234375 -1.109375l-0.046875 0q-0.59375 0.734375 -1.1875 1.0q-0.578125 0.25 -1.453125 0.25q-1.15625 0 -1.828125 -0.59375q-0.65625 -0.609375 -0.65625 -1.71875q0 -2.375 3.796875 -2.484375l1.328125 -0.046875l0 -0.484375q0 -0.921875 -0.390625 -1.359375q-0.390625 -0.4375 -1.265625 -0.4375q-0.984375 0 -2.21875 0.59375l-0.375 -0.90625q0.578125 -0.3125 1.265625 -0.484375q0.703125 -0.1875 1.390625 -0.1875q1.40625 0 2.078125 0.625q0.6875 0.609375 0.6875 1.984375l0 5.359375l-0.890625 0zm-2.671875 -0.84375q1.109375 0 1.734375 -0.59375q0.640625 -0.609375 0.640625 -1.71875l0 -0.703125l-1.1875 0.046875q-1.421875 0.0625 -2.046875 0.453125q-0.625 0.375 -0.625 1.203125q0 0.640625 0.390625 0.984375q0.390625 0.328125 1.09375 0.328125zm8.541748 0q0.3125 0 0.59375 -0.046875q0.296875 -0.046875 0.46875 -0.09375l0 0.90625q-0.1875 0.09375 -0.5625 0.15625q-0.375 0.0625 -0.671875 0.0625q-2.28125 0 -2.28125 -2.390625l0 -4.671875l-1.125 0l0 -0.578125l1.125 -0.484375l0.5 -1.671875l0.6875 0l0 1.8125l2.28125 0l0 0.921875l-2.28125 0l0 4.625q0 0.703125 0.328125 1.078125q0.34375 0.375 0.9375 0.375zm3.8302917 0.84375l-1.1875 0l0 -7.84375l1.1875 0l0 7.84375zm-1.296875 -9.96875q0 -0.40625 0.203125 -0.59375q0.203125 -0.1875 0.5 -0.1875q0.28125 0 0.484375 0.1875q0.21875 0.1875 0.21875 0.59375q0 0.40625 -0.21875 0.609375q-0.203125 0.1875 -0.484375 0.1875q-0.296875 0 -0.5 -0.1875q-0.203125 -0.203125 -0.203125 -0.609375zm10.582001 6.046875q0 1.90625 -0.96875 2.984375q-0.96875 1.078125 -2.671875 1.078125q-1.046875 0 -1.875 -0.484375q-0.8125 -0.5 -1.25 -1.421875q-0.4375 -0.921875 -0.4375 -2.15625q0 -1.921875 0.953125 -2.984375q0.953125 -1.078125 2.65625 -1.078125q1.65625 0 2.625 1.09375q0.96875 1.09375 0.96875 2.96875zm-5.984375 0q0 1.5 0.59375 2.28125q0.609375 0.78125 1.78125 0.78125q1.171875 0 1.765625 -0.78125q0.609375 -0.78125 0.609375 -2.28125q0 -1.5 -0.609375 -2.28125q-0.59375 -0.78125 -1.78125 -0.78125q-1.171875 0 -1.765625 0.765625q-0.59375 0.765625 -0.59375 2.296875zm13.4305725 3.921875l0 -5.078125q0 -0.953125 -0.4375 -1.421875q-0.4375 -0.484375 -1.359375 -0.484375q-1.234375 0 -1.8125 0.671875q-0.5625 0.671875 -0.5625 2.203125l0 4.109375l-1.1875 0l0 -7.84375l0.953125 0l0.203125 1.078125l0.046875 0q0.375 -0.578125 1.03125 -0.890625q0.65625 -0.328125 1.46875 -0.328125q1.421875 0 2.125 0.6875q0.71875 0.671875 0.71875 2.1875l0 5.109375l-1.1875 0z" fill-rule="nonzero"/><path fill="#dd7e6b" fill-opacity="0.743" d="m36.97113 41.454086l5.842499 0l0 37.716515l-5.842499 0z" fill-rule="evenodd"/><path fill="#b06455" fill-opacity="0.743" d="m42.81363 41.454086l15.165375 -15.165373l0 37.716515l-15.165375 15.165375z" fill-rule="evenodd"/><path fill="#e39788" fill-opacity="0.743" d="m36.97113 41.454086l15.165371 -15.165373l5.8425026 0l-15.165375 15.165373z" fill-rule="evenodd"/><path fill="#000000" fill-opacity="0.0" d="m36.97113 41.454086l15.165371 -15.165373l5.8425026 0l0 37.716515l-15.165375 15.165375l-5.842499 0zm0 0l5.842499 0l15.165375 -15.165373m-15.165375 15.165373l0 37.716515" fill-rule="evenodd"/><path stroke="#cc4125" stroke-width="1.0" stroke-linejoin="round" stroke-linecap="butt" d="m36.97113 41.454086l15.165371 -15.165373l5.8425026 0l0 37.716515l-15.165375 15.165375l-5.842499 0zm0 0l5.842499 0l15.165375 -15.165373m-15.165375 15.165373l0 37.716515" fill-rule="evenodd"/><path fill="#b6d7a8" fill-opacity="0.8045" d="m84.91269 41.454086l5.8425064 0l0 37.716515l-5.8425064 0z" fill-rule="evenodd"/><path fill="#91ab86" fill-opacity="0.8045" d="m90.755196 41.454086l15.165375 -15.165373l0 37.716515l-15.165375 15.165375z" fill-rule="evenodd"/><path fill="#c4dfb9" fill-opacity="0.8045" d="m84.91269 41.454086l15.165375 -15.165373l5.8425064 0l-15.165375 15.165373z" fill-rule="evenodd"/><path fill="#000000" fill-opacity="0.0" d="m84.91269 41.454086l15.165375 -15.165373l5.8425064 0l0 37.716515l-15.165375 15.165375l-5.8425064 0zm0 0l5.8425064 0l15.165375 -15.165373m-15.165375 15.165373l0 37.716515" fill-rule="evenodd"/><path stroke="#93c47d" stroke-width="1.0" stroke-linejoin="round" stroke-linecap="butt" d="m84.91269 41.454086l15.165375 -15.165373l5.8425064 0l0 37.716515l-15.165375 15.165375l-5.8425064 0zm0 0l5.8425064 0l15.165375 -15.165373m-15.165375 15.165373l0 37.716515" fill-rule="evenodd"/><path fill="#b4a7d6" fill-opacity="0.7207" d="m132.85426 41.454086l5.842499 0l0 37.716515l-5.842499 0z" fill-rule="evenodd"/><path fill="#8f85ab" fill-opacity="0.7207" d="m138.69676 41.454086l15.165375 -15.165373l0 37.716515l-15.165375 15.165375z" fill-rule="evenodd"/><path fill="#c3b8de" fill-opacity="0.7207" d="m132.85426 41.454086l15.1653595 -15.165373l5.842514 0l-15.165375 15.165373z" fill-rule="evenodd"/><path fill="#000000" fill-opacity="0.0" d="m132.85426 41.454086l15.1653595 -15.165373l5.842514 0l0 37.716515l-15.165375 15.165375l-5.842499 0zm0 0l5.842499 0l15.165375 -15.165373m-15.165375 15.165373l0 37.716515" fill-rule="evenodd"/><path stroke="#8e7cc3" stroke-width="1.0" stroke-linejoin="round" stroke-linecap="butt" d="m132.85426 41.454086l15.1653595 -15.165373l5.842514 0l0 37.716515l-15.165375 15.165375l-5.842499 0zm0 0l5.842499 0l15.165375 -15.165373m-15.165375 15.165373l0 37.716515" fill-rule="evenodd"/><path fill="#a4c2f4" fill-opacity="0.743" d="m180.79582 41.454086l5.842499 0l0 37.716515l-5.842499 0z" fill-rule="evenodd"/><path fill="#839bc3" fill-opacity="0.743" d="m186.63832 41.454086l15.165375 -15.165373l0 37.716515l-15.165375 15.165375z" fill-rule="evenodd"/><path fill="#b6cef6" fill-opacity="0.743" d="m180.79582 41.454086l15.165375 -15.165373l5.842499 0l-15.165375 15.165373z" fill-rule="evenodd"/><path fill="#000000" fill-opacity="0.0" d="m180.79582 41.454086l15.165375 -15.165373l5.842499 0l0 37.716515l-15.165375 15.165375l-5.842499 0zm0 0l5.842499 0l15.165375 -15.165373m-15.165375 15.165373l0 37.716515" fill-rule="evenodd"/><path stroke="#6d9eeb" stroke-width="1.0" stroke-linejoin="round" stroke-linecap="butt" d="m180.79582 41.454086l15.165375 -15.165373l5.842499 0l0 37.716515l-15.165375 15.165375l-5.842499 0zm0 0l5.842499 0l15.165375 -15.165373m-15.165375 15.165373l0 37.716515" fill-rule="evenodd"/><path fill="#f9cb9c" fill-opacity="0.7654" d="m228.73738 41.454086l5.842499 0l0 37.716515l-5.842499 0z" fill-rule="evenodd"/><path fill="#c7a27c" fill-opacity="0.7654" d="m234.57988 41.454086l15.165375 -15.165373l0 37.716515l-15.165375 15.165375z" fill-rule="evenodd"/><path fill="#fad5af" fill-opacity="0.7654" d="m228.73738 41.454086l15.165375 -15.165373l5.842499 0l-15.165375 15.165373z" fill-rule="evenodd"/><path fill="#000000" fill-opacity="0.0" d="m228.73738 41.454086l15.165375 -15.165373l5.842499 0l0 37.716515l-15.165375 15.165375l-5.842499 0zm0 0l5.842499 0l15.165375 -15.165373m-15.165375 15.165373l0 37.716515" fill-rule="evenodd"/><path stroke="#f6b26b" stroke-width="1.0" stroke-linejoin="round" stroke-linecap="butt" d="m228.73738 41.454086l15.165375 -15.165373l5.842499 0l0 37.716515l-15.165375 15.165375l-5.842499 0zm0 0l5.842499 0l15.165375 -15.165373m-15.165375 15.165373l0 37.716515" fill-rule="evenodd"/><path fill="#a2c4c9" fill-opacity="0.7598" d="m276.67896 41.454086l5.842499 0l0 37.716515l-5.842499 0z" fill-rule="evenodd"/><path fill="#819ca0" fill-opacity="0.7598" d="m282.52145 41.454086l15.165375 -15.165373l0 37.716515l-15.165375 15.165375z" fill-rule="evenodd"/><path fill="#b4cfd3" fill-opacity="0.7598" d="m276.67896 41.454086l15.165375 -15.165373l5.842499 0l-15.165375 15.165373z" fill-rule="evenodd"/><path fill="#000000" fill-opacity="0.0" d="m276.67896 41.454086l15.165375 -15.165373l5.842499 0l0 37.716515l-15.165375 15.165375l-5.842499 0zm0 0l5.842499 0l15.165375 -15.165373m-15.165375 15.165373l0 37.716515" fill-rule="evenodd"/><path stroke="#76a5af" stroke-width="1.0" stroke-linejoin="round" stroke-linecap="butt" d="m276.67896 41.454086l15.165375 -15.165373l5.842499 0l0 37.716515l-15.165375 15.165375l-5.842499 0zm0 0l5.842499 0l15.165375 -15.165373m-15.165375 15.165373l0 37.716515" fill-rule="evenodd"/><path fill="#dd7e6b" fill-opacity="0.743" d="m521.86176 41.454086l5.8424683 0l0 37.716515l-5.8424683 0z" fill-rule="evenodd"/><path fill="#b06455" fill-opacity="0.743" d="m527.7042 41.454086l15.165405 -15.165373l0 37.716515l-15.165405 15.165375z" fill-rule="evenodd"/><path fill="#e39788" fill-opacity="0.743" d="m521.86176 41.454086l15.165344 -15.165373l5.8425293 0l-15.165405 15.165373z" fill-rule="evenodd"/><path fill="#000000" fill-opacity="0.0" d="m521.86176 41.454086l15.165344 -15.165373l5.8425293 0l0 37.716515l-15.165405 15.165375l-5.8424683 0zm0 0l5.8424683 0l15.165405 -15.165373m-15.165405 15.165373l0 37.716515" fill-rule="evenodd"/><path stroke="#cc4125" stroke-width="1.0" stroke-linejoin="round" stroke-linecap="butt" d="m521.86176 41.454086l15.165344 -15.165373l5.8425293 0l0 37.716515l-15.165405 15.165375l-5.8424683 0zm0 0l5.8424683 0l15.165405 -15.165373m-15.165405 15.165373l0 37.716515" fill-rule="evenodd"/><path fill="#b6d7a8" fill-opacity="0.8045" d="m569.8033 41.454086l5.8425293 0l0 37.716515l-5.8425293 0z" fill-rule="evenodd"/><path fill="#91ab86" fill-opacity="0.8045" d="m575.6458 41.454086l15.165344 -15.165373l0 37.716515l-15.165344 15.165375z" fill-rule="evenodd"/><path fill="#c4dfb9" fill-opacity="0.8045" d="m569.8033 41.454086l15.165405 -15.165373l5.8424683 0l-15.165344 15.165373z" fill-rule="evenodd"/><path fill="#000000" fill-opacity="0.0" d="m569.8033 41.454086l15.165405 -15.165373l5.8424683 0l0 37.716515l-15.165344 15.165375l-5.8425293 0zm0 0l5.8425293 0l15.165344 -15.165373m-15.165344 15.165373l0 37.716515" fill-rule="evenodd"/><path stroke="#93c47d" stroke-width="1.0" stroke-linejoin="round" stroke-linecap="butt" d="m569.8033 41.454086l15.165405 -15.165373l5.8424683 0l0 37.716515l-15.165344 15.165375l-5.8425293 0zm0 0l5.8425293 0l15.165344 -15.165373m-15.165344 15.165373l0 37.716515" fill-rule="evenodd"/><path fill="#b4a7d6" fill-opacity="0.7207" d="m617.7449 41.454086l5.8424683 0l0 37.716515l-5.8424683 0z" fill-rule="evenodd"/><path fill="#8f85ab" fill-opacity="0.7207" d="m623.58734 41.454086l15.165405 -15.165373l0 37.716515l-15.165405 15.165375z" fill-rule="evenodd"/><path fill="#c3b8de" fill-opacity="0.7207" d="m617.7449 41.454086l15.165344 -15.165373l5.8425293 0l-15.165405 15.165373z" fill-rule="evenodd"/><path fill="#000000" fill-opacity="0.0" d="m617.7449 41.454086l15.165344 -15.165373l5.8425293 0l0 37.716515l-15.165405 15.165375l-5.8424683 0zm0 0l5.8424683 0l15.165405 -15.165373m-15.165405 15.165373l0 37.716515" fill-rule="evenodd"/><path stroke="#8e7cc3" stroke-width="1.0" stroke-linejoin="round" stroke-linecap="butt" d="m617.7449 41.454086l15.165344 -15.165373l5.8425293 0l0 37.716515l-15.165405 15.165375l-5.8424683 0zm0 0l5.8424683 0l15.165405 -15.165373m-15.165405 15.165373l0 37.716515" fill-rule="evenodd"/><path fill="#a4c2f4" fill-opacity="0.743" d="m665.6864 41.454086l5.8425293 0l0 37.716515l-5.8425293 0z" fill-rule="evenodd"/><path fill="#839bc3" fill-opacity="0.743" d="m671.52893 41.454086l15.165344 -15.165373l0 37.716515l-15.165344 15.165375z" fill-rule="evenodd"/><path fill="#b6cef6" fill-opacity="0.743" d="m665.6864 41.454086l15.165405 -15.165373l5.8424683 0l-15.165344 15.165373z" fill-rule="evenodd"/><path fill="#000000" fill-opacity="0.0" d="m665.6864 41.454086l15.165405 -15.165373l5.8424683 0l0 37.716515l-15.165344 15.165375l-5.8425293 0zm0 0l5.8425293 0l15.165344 -15.165373m-15.165344 15.165373l0 37.716515" fill-rule="evenodd"/><path stroke="#6d9eeb" stroke-width="1.0" stroke-linejoin="round" stroke-linecap="butt" d="m665.6864 41.454086l15.165405 -15.165373l5.8424683 0l0 37.716515l-15.165344 15.165375l-5.8425293 0zm0 0l5.8425293 0l15.165344 -15.165373m-15.165344 15.165373l0 37.716515" fill-rule="evenodd"/><path fill="#f9cb9c" fill-opacity="0.7654" d="m713.628 41.454086l5.8424683 0l0 37.716515l-5.8424683 0z" fill-rule="evenodd"/><path fill="#c7a27c" fill-opacity="0.7654" d="m719.47046 41.454086l15.165405 -15.165373l0 37.716515l-15.165405 15.165375z" fill-rule="evenodd"/><path fill="#fad5af" fill-opacity="0.7654" d="m713.628 41.454086l15.165344 -15.165373l5.8425293 0l-15.165405 15.165373z" fill-rule="evenodd"/><path fill="#000000" fill-opacity="0.0" d="m713.628 41.454086l15.165344 -15.165373l5.8425293 0l0 37.716515l-15.165405 15.165375l-5.8424683 0zm0 0l5.8424683 0l15.165405 -15.165373m-15.165405 15.165373l0 37.716515" fill-rule="evenodd"/><path stroke="#f6b26b" stroke-width="1.0" stroke-linejoin="round" stroke-linecap="butt" d="m713.628 41.454086l15.165344 -15.165373l5.8425293 0l0 37.716515l-15.165405 15.165375l-5.8424683 0zm0 0l5.8424683 0l15.165405 -15.165373m-15.165405 15.165373l0 37.716515" fill-rule="evenodd"/><path fill="#a2c4c9" fill-opacity="0.7598" d="m761.5696 41.454086l5.8424683 0l0 37.716515l-5.8424683 0z" fill-rule="evenodd"/><path fill="#819ca0" fill-opacity="0.7598" d="m767.41205 41.454086l15.165405 -15.165373l0 37.716515l-15.165405 15.165375z" fill-rule="evenodd"/><path fill="#b4cfd3" fill-opacity="0.7598" d="m761.5696 41.454086l15.165344 -15.165373l5.8425293 0l-15.165405 15.165373z" fill-rule="evenodd"/><path fill="#000000" fill-opacity="0.0" d="m761.5696 41.454086l15.165344 -15.165373l5.8425293 0l0 37.716515l-15.165405 15.165375l-5.8424683 0zm0 0l5.8424683 0l15.165405 -15.165373m-15.165405 15.165373l0 37.716515" fill-rule="evenodd"/><path stroke="#76a5af" stroke-width="1.0" stroke-linejoin="round" stroke-linecap="butt" d="m761.5696 41.454086l15.165344 -15.165373l5.8425293 0l0 37.716515l-15.165405 15.165375l-5.8424683 0zm0 0l5.8424683 0l15.165405 -15.165373m-15.165405 15.165373l0 37.716515" fill-rule="evenodd"/><path fill="#b6d7a8" fill-opacity="0.8045" d="m36.97113 190.25461l5.842499 0l0 36.047226l-5.842499 0z" fill-rule="evenodd"/><path fill="#91ab86" fill-opacity="0.8045" d="m42.81363 190.25461l15.165375 -15.165375l0 36.047226l-15.165375 15.165375z" fill-rule="evenodd"/><path fill="#c4dfb9" fill-opacity="0.8045" d="m36.97113 190.25461l15.165371 -15.165375l5.8425026 0l-15.165375 15.165375z" fill-rule="evenodd"/><path fill="#000000" fill-opacity="0.0" d="m36.97113 190.25461l15.165371 -15.165375l5.8425026 0l0 36.047226l-15.165375 15.165375l-5.842499 0zm0 0l5.842499 0l15.165375 -15.165375m-15.165375 15.165375l0 36.047226" fill-rule="evenodd"/><path stroke="#93c47d" stroke-width="1.0" stroke-linejoin="round" stroke-linecap="butt" d="m36.97113 190.25461l15.165371 -15.165375l5.8425026 0l0 36.047226l-15.165375 15.165375l-5.842499 0zm0 0l5.842499 0l15.165375 -15.165375m-15.165375 15.165375l0 36.047226" fill-rule="evenodd"/><path fill="#f9cb9c" fill-opacity="0.7654" d="m96.89809 190.25461l5.842499 0l0 36.047226l-5.842499 0z" fill-rule="evenodd"/><path fill="#c7a27c" fill-opacity="0.7654" d="m102.740585 190.25461l15.165375 -15.165375l0 36.047226l-15.165375 15.165375z" fill-rule="evenodd"/><path fill="#fad5af" fill-opacity="0.7654" d="m96.89809 190.25461l15.165375 -15.165375l5.842499 0l-15.165375 15.165375z" fill-rule="evenodd"/><path fill="#000000" fill-opacity="0.0" d="m96.89809 190.25461l15.165375 -15.165375l5.842499 0l0 36.047226l-15.165375 15.165375l-5.842499 0zm0 0l5.842499 0l15.165375 -15.165375m-15.165375 15.165375l0 36.047226" fill-rule="evenodd"/><path stroke="#f6b26b" stroke-width="1.0" stroke-linejoin="round" stroke-linecap="butt" d="m96.89809 190.25461l15.165375 -15.165375l5.842499 0l0 36.047226l-15.165375 15.165375l-5.842499 0zm0 0l5.842499 0l15.165375 -15.165375m-15.165375 15.165375l0 36.047226" fill-rule="evenodd"/><path fill="#a2c4c9" fill-opacity="0.7598" d="m156.82504 190.25461l5.842499 0l0 36.047226l-5.842499 0z" fill-rule="evenodd"/><path fill="#819ca0" fill-opacity="0.7598" d="m162.66754 190.25461l15.165375 -15.165375l0 36.047226l-15.165375 15.165375z" fill-rule="evenodd"/><path fill="#b4cfd3" fill-opacity="0.7598" d="m156.82504 190.25461l15.165375 -15.165375l5.842499 0l-15.165375 15.165375z" fill-rule="evenodd"/><path fill="#000000" fill-opacity="0.0" d="m156.82504 190.25461l15.165375 -15.165375l5.842499 0l0 36.047226l-15.165375 15.165375l-5.842499 0zm0 0l5.842499 0l15.165375 -15.165375m-15.165375 15.165375l0 36.047226" fill-rule="evenodd"/><path stroke="#76a5af" stroke-width="1.0" stroke-linejoin="round" stroke-linecap="butt" d="m156.82504 190.25461l15.165375 -15.165375l5.842499 0l0 36.047226l-15.165375 15.165375l-5.842499 0zm0 0l5.842499 0l15.165375 -15.165375m-15.165375 15.165375l0 36.047226" fill-rule="evenodd"/><path fill="#dd7e6b" fill-opacity="0.743" d="m216.752 190.25461l5.842499 0l0 36.047226l-5.842499 0z" fill-rule="evenodd"/><path fill="#b06455" fill-opacity="0.743" d="m222.5945 190.25461l15.165375 -15.165375l0 36.047226l-15.165375 15.165375z" fill-rule="evenodd"/><path fill="#e39788" fill-opacity="0.743" d="m216.752 190.25461l15.165375 -15.165375l5.842499 0l-15.165375 15.165375z" fill-rule="evenodd"/><path fill="#000000" fill-opacity="0.0" d="m216.752 190.25461l15.165375 -15.165375l5.842499 0l0 36.047226l-15.165375 15.165375l-5.842499 0zm0 0l5.842499 0l15.165375 -15.165375m-15.165375 15.165375l0 36.047226" fill-rule="evenodd"/><path stroke="#cc4125" stroke-width="1.0" stroke-linejoin="round" stroke-linecap="butt" d="m216.752 190.25461l15.165375 -15.165375l5.842499 0l0 36.047226l-15.165375 15.165375l-5.842499 0zm0 0l5.842499 0l15.165375 -15.165375m-15.165375 15.165375l0 36.047226" fill-rule="evenodd"/><path fill="#a4c2f4" fill-opacity="0.743" d="m276.67896 190.25461l5.842499 0l0 36.047226l-5.842499 0z" fill-rule="evenodd"/><path fill="#839bc3" fill-opacity="0.743" d="m282.52145 190.25461l15.165375 -15.165375l0 36.047226l-15.165375 15.165375z" fill-rule="evenodd"/><path fill="#b6cef6" fill-opacity="0.743" d="m276.67896 190.25461l15.165375 -15.165375l5.842499 0l-15.165375 15.165375z" fill-rule="evenodd"/><path fill="#000000" fill-opacity="0.0" d="m276.67896 190.25461l15.165375 -15.165375l5.842499 0l0 36.047226l-15.165375 15.165375l-5.842499 0zm0 0l5.842499 0l15.165375 -15.165375m-15.165375 15.165375l0 36.047226" fill-rule="evenodd"/><path stroke="#6d9eeb" stroke-width="1.0" stroke-linejoin="round" stroke-linecap="butt" d="m276.67896 190.25461l15.165375 -15.165375l5.842499 0l0 36.047226l-15.165375 15.165375l-5.842499 0zm0 0l5.842499 0l15.165375 -15.165375m-15.165375 15.165375l0 36.047226" fill-rule="evenodd"/><path fill="#b6d7a8" fill-opacity="0.8045" d="m524.9711 190.25461l5.8424683 0l0 36.047226l-5.8424683 0z" fill-rule="evenodd"/><path fill="#91ab86" fill-opacity="0.8045" d="m530.8136 190.25461l15.165405 -15.165375l0 36.047226l-15.165405 15.165375z" fill-rule="evenodd"/><path fill="#c4dfb9" fill-opacity="0.8045" d="m524.9711 190.25461l15.165344 -15.165375l5.8425293 0l-15.165405 15.165375z" fill-rule="evenodd"/><path fill="#000000" fill-opacity="0.0" d="m524.9711 190.25461l15.165344 -15.165375l5.8425293 0l0 36.047226l-15.165405 15.165375l-5.8424683 0zm0 0l5.8424683 0l15.165405 -15.165375m-15.165405 15.165375l0 36.047226" fill-rule="evenodd"/><path stroke="#93c47d" stroke-width="1.0" stroke-linejoin="round" stroke-linecap="butt" d="m524.9711 190.25461l15.165344 -15.165375l5.8425293 0l0 36.047226l-15.165405 15.165375l-5.8424683 0zm0 0l5.8424683 0l15.165405 -15.165375m-15.165405 15.165375l0 36.047226" fill-rule="evenodd"/><path fill="#f9cb9c" fill-opacity="0.7654" d="m584.1207 190.25461l5.8425293 0l0 36.047226l-5.8425293 0z" fill-rule="evenodd"/><path fill="#c7a27c" fill-opacity="0.7654" d="m589.96326 190.25461l15.165344 -15.165375l0 36.047226l-15.165344 15.165375z" fill-rule="evenodd"/><path fill="#fad5af" fill-opacity="0.7654" d="m584.1207 190.25461l15.165405 -15.165375l5.8424683 0l-15.165344 15.165375z" fill-rule="evenodd"/><path fill="#000000" fill-opacity="0.0" d="m584.1207 190.25461l15.165405 -15.165375l5.8424683 0l0 36.047226l-15.165344 15.165375l-5.8425293 0zm0 0l5.8425293 0l15.165344 -15.165375m-15.165344 15.165375l0 36.047226" fill-rule="evenodd"/><path stroke="#f6b26b" stroke-width="1.0" stroke-linejoin="round" stroke-linecap="butt" d="m584.1207 190.25461l15.165405 -15.165375l5.8424683 0l0 36.047226l-15.165344 15.165375l-5.8425293 0zm0 0l5.8425293 0l15.165344 -15.165375m-15.165344 15.165375l0 36.047226" fill-rule="evenodd"/><path fill="#a2c4c9" fill-opacity="0.7598" d="m643.2703 190.25461l5.8425293 0l0 36.047226l-5.8425293 0z" fill-rule="evenodd"/><path fill="#819ca0" fill-opacity="0.7598" d="m649.11285 190.25461l15.165344 -15.165375l0 36.047226l-15.165344 15.165375z" fill-rule="evenodd"/><path fill="#b4cfd3" fill-opacity="0.7598" d="m643.2703 190.25461l15.165405 -15.165375l5.8424683 0l-15.165344 15.165375z" fill-rule="evenodd"/><path fill="#000000" fill-opacity="0.0" d="m643.2703 190.25461l15.165405 -15.165375l5.8424683 0l0 36.047226l-15.165344 15.165375l-5.8425293 0zm0 0l5.8425293 0l15.165344 -15.165375m-15.165344 15.165375l0 36.047226" fill-rule="evenodd"/><path stroke="#76a5af" stroke-width="1.0" stroke-linejoin="round" stroke-linecap="butt" d="m643.2703 190.25461l15.165405 -15.165375l5.8424683 0l0 36.047226l-15.165344 15.165375l-5.8425293 0zm0 0l5.8425293 0l15.165344 -15.165375m-15.165344 15.165375l0 36.047226" fill-rule="evenodd"/><path fill="#dd7e6b" fill-opacity="0.743" d="m702.4199 190.25461l5.8425293 0l0 36.047226l-5.8425293 0z" fill-rule="evenodd"/><path fill="#b06455" fill-opacity="0.743" d="m708.26245 190.25461l15.165344 -15.165375l0 36.047226l-15.165344 15.165375z" fill-rule="evenodd"/><path fill="#e39788" fill-opacity="0.743" d="m702.4199 190.25461l15.165405 -15.165375l5.8424683 0l-15.165344 15.165375z" fill-rule="evenodd"/><path fill="#000000" fill-opacity="0.0" d="m702.4199 190.25461l15.165405 -15.165375l5.8424683 0l0 36.047226l-15.165344 15.165375l-5.8425293 0zm0 0l5.8425293 0l15.165344 -15.165375m-15.165344 15.165375l0 36.047226" fill-rule="evenodd"/><path stroke="#cc4125" stroke-width="1.0" stroke-linejoin="round" stroke-linecap="butt" d="m702.4199 190.25461l15.165405 -15.165375l5.8424683 0l0 36.047226l-15.165344 15.165375l-5.8425293 0zm0 0l5.8425293 0l15.165344 -15.165375m-15.165344 15.165375l0 36.047226" fill-rule="evenodd"/><path fill="#a4c2f4" fill-opacity="0.743" d="m761.5696 190.25461l5.8424683 0l0 36.047226l-5.8424683 0z" fill-rule="evenodd"/><path fill="#839bc3" fill-opacity="0.743" d="m767.41205 190.25461l15.165405 -15.165375l0 36.047226l-15.165405 15.165375z" fill-rule="evenodd"/><path fill="#b6cef6" fill-opacity="0.743" d="m761.5696 190.25461l15.165344 -15.165375l5.8425293 0l-15.165405 15.165375z" fill-rule="evenodd"/><path fill="#000000" fill-opacity="0.0" d="m761.5696 190.25461l15.165344 -15.165375l5.8425293 0l0 36.047226l-15.165405 15.165375l-5.8424683 0zm0 0l5.8424683 0l15.165405 -15.165375m-15.165405 15.165375l0 36.047226" fill-rule="evenodd"/><path stroke="#6d9eeb" stroke-width="1.0" stroke-linejoin="round" stroke-linecap="butt" d="m761.5696 190.25461l15.165344 -15.165375l5.8425293 0l0 36.047226l-15.165405 15.165375l-5.8424683 0zm0 0l5.8424683 0l15.165405 -15.165375m-15.165405 15.165375l0 36.047226" fill-rule="evenodd"/><path fill="#000000" fill-opacity="0.0" d="m22.897316 148.01552l61.95276 0l0 26.141739l-61.95276 0z" fill-rule="evenodd"/><path fill="#000000" d="m55.112724 154.7395l-0.984375 4.28125l-0.359375 0l-0.03125 -1.0625q-0.0625 -0.59375 -0.234375 -1.046875q-0.171875 -0.46875 -0.53125 -0.796875q-0.34375 -0.34375 -0.890625 -0.53125q-0.53125 -0.1875 -1.1875 -0.1875q-1.75 0 -3.046875 0.953125q-1.671875 1.21875 -2.625 3.453125q-0.78125 1.828125 -0.78125 3.71875q0 1.921875 1.125 3.078125q1.125 1.140625 2.921875 1.140625q1.359375 0 2.40625 -0.609375q1.0625 -0.609375 1.984375 -1.859375l0.453125 0q-1.078125 1.703125 -2.390625 2.515625q-1.296875 0.796875 -3.125 0.796875q-1.625 0 -2.875 -0.671875q-1.25 -0.6875 -1.90625 -1.90625q-0.65625 -1.234375 -0.65625 -2.65625q0 -2.15625 1.15625 -4.203125q1.171875 -2.0625 3.1875 -3.234375q2.03125 -1.171875 4.09375 -1.171875q0.96875 0 2.171875 0.453125q0.53125 0.203125 0.765625 0.203125q0.234375 0 0.40625 -0.09375q0.171875 -0.109375 0.59375 -0.5625l0.359375 0z" fill-rule="nonzero"/><path fill="#000000" d="m61.686943 154.1145l-3.65625 5.09375l-1.28125 0l2.671875 -5.09375l2.265625 0z" fill-rule="nonzero"/><path fill="#000000" d="m65.50967 158.38013l-2.3125 8.03125q-0.203125 0.703125 -0.203125 1.015625q0 0.265625 0.1875 0.40625q0.1875 0.140625 0.859375 0.1875l-0.078125 0.265625l-3.6875 0l0.109375 -0.265625q0.578125 -0.015625 0.765625 -0.09375q0.296875 -0.125 0.453125 -0.34375q0.234375 -0.328125 0.484375 -1.171875l1.65625 -5.765625q0.15625 -0.53125 0.15625 -0.609375q0.03125 -0.140625 0.03125 -0.265625q0 -0.265625 -0.140625 -0.40625q-0.140625 -0.140625 -0.375 -0.140625q-0.1875 0 -0.578125 0.09375l-0.09375 -0.265625l2.421875 -0.671875l0.34375 0z" fill-rule="nonzero"/><path fill="#000000" fill-opacity="0.0" d="m81.94949 148.01323l61.95276 0l0 26.141724l-61.95276 0z" fill-rule="evenodd"/><path fill="#000000" d="m114.1649 154.73721l-0.984375 4.28125l-0.359375 0l-0.03125 -1.0625q-0.0625 -0.59375 -0.234375 -1.046875q-0.171875 -0.46875 -0.53125 -0.796875q-0.34375 -0.34375 -0.890625 -0.53125q-0.53125 -0.1875 -1.1875 -0.1875q-1.75 0 -3.046875 0.953125q-1.671875 1.21875 -2.625 3.453125q-0.78125 1.828125 -0.78125 3.71875q0 1.921875 1.125 3.078125q1.125 1.140625 2.921875 1.140625q1.359375 0 2.40625 -0.609375q1.0625 -0.609375 1.984375 -1.859375l0.453125 0q-1.078125 1.703125 -2.390625 2.515625q-1.296875 0.796875 -3.125 0.796875q-1.625 0 -2.875 -0.671875q-1.25 -0.6875 -1.90625 -1.90625q-0.65625 -1.234375 -0.65625 -2.65625q0 -2.15625 1.15625 -4.203125q1.171875 -2.0625 3.1875 -3.234375q2.03125 -1.171875 4.09375 -1.171875q0.96875 0 2.171875 0.453125q0.53125 0.203125 0.765625 0.203125q0.234375 0 0.40625 -0.09375q0.171875 -0.109375 0.59375 -0.5625l0.359375 0z" fill-rule="nonzero"/><path fill="#000000" d="m120.73912 154.11221l-3.65625 5.09375l-1.28125 0l2.671875 -5.09375l2.265625 0z" fill-rule="nonzero"/><path fill="#000000" d="m123.499344 168.28409l-4.828125 0l0 -0.265625q3.6875 -3.234375 4.875 -5.078125q0.546875 -0.84375 0.546875 -1.78125q0 -0.75 -0.453125 -1.21875q-0.453125 -0.46875 -1.1875 -0.46875q-1.015625 0 -1.65625 0.96875l-0.25 -0.109375q0.359375 -0.921875 1.0625 -1.4375q0.703125 -0.515625 1.515625 -0.515625q0.921875 0 1.546875 0.640625q0.640625 0.625 0.640625 1.53125q0 0.625 -0.234375 1.171875q-0.328125 0.828125 -1.265625 1.875q-1.390625 1.578125 -3.734375 3.65625l2.4375 0q0.578125 0 0.953125 -0.25q0.390625 -0.25 0.546875 -0.65625l0.296875 0l-0.8125 1.9375z" fill-rule="nonzero"/><path fill="#000000" fill-opacity="0.0" d="m141.00166 148.01323l61.95276 0l0 26.141724l-61.95276 0z" fill-rule="evenodd"/><path fill="#000000" d="m173.21707 154.73721l-0.984375 4.28125l-0.359375 0l-0.03125 -1.0625q-0.0625 -0.59375 -0.234375 -1.046875q-0.171875 -0.46875 -0.53125 -0.796875q-0.34375 -0.34375 -0.890625 -0.53125q-0.53125 -0.1875 -1.1875 -0.1875q-1.75 0 -3.046875 0.953125q-1.671875 1.21875 -2.625 3.453125q-0.78125 1.828125 -0.78125 3.71875q0 1.921875 1.125 3.078125q1.125 1.140625 2.921875 1.140625q1.359375 0 2.40625 -0.609375q1.0625 -0.609375 1.984375 -1.859375l0.453125 0q-1.078125 1.703125 -2.390625 2.515625q-1.296875 0.796875 -3.125 0.796875q-1.625 0 -2.875 -0.671875q-1.25 -0.6875 -1.90625 -1.90625q-0.65625 -1.234375 -0.65625 -2.65625q0 -2.15625 1.15625 -4.203125q1.171875 -2.0625 3.1875 -3.234375q2.03125 -1.171875 4.09375 -1.171875q0.96875 0 2.171875 0.453125q0.53125 0.203125 0.765625 0.203125q0.234375 0 0.40625 -0.09375q0.171875 -0.109375 0.59375 -0.5625l0.359375 0z" fill-rule="nonzero"/><path fill="#000000" d="m179.79129 154.11221l-3.65625 5.09375l-1.28125 0l2.671875 -5.09375l2.265625 0z" fill-rule="nonzero"/><path fill="#000000" d="m179.72339 162.98721l0 -0.21875q1.734375 -0.265625 2.59375 -1.03125q0.609375 -0.53125 0.609375 -1.296875q0 -0.5625 -0.359375 -0.921875q-0.359375 -0.375 -0.859375 -0.375q-0.8125 0 -1.421875 1.0l-0.265625 -0.078125q0.359375 -0.828125 0.9375 -1.25q0.59375 -0.4375 1.296875 -0.4375q0.84375 0 1.359375 0.515625q0.515625 0.5 0.515625 1.265625q0 0.65625 -0.484375 1.265625q-0.484375 0.609375 -1.6875 1.09375q0.75 0.3125 1.125 0.890625q0.375 0.5625 0.375 1.375q0 0.890625 -0.515625 1.796875q-0.515625 0.890625 -1.40625 1.390625q-0.890625 0.484375 -1.890625 0.484375q-0.890625 0 -1.359375 -0.3125q-0.3125 -0.21875 -0.3125 -0.5q0 -0.25 0.1875 -0.421875q0.1875 -0.1875 0.4375 -0.1875q0.1875 0 0.375 0.0625q0.125 0.03125 0.5625 0.28125q0.453125 0.25 0.703125 0.328125q0.25 0.078125 0.515625 0.078125q0.640625 0 1.0625 -0.734375q0.421875 -0.75 0.421875 -1.59375q0 -0.6875 -0.296875 -1.21875q-0.28125 -0.546875 -0.890625 -0.875q-0.59375 -0.34375 -1.328125 -0.375z" fill-rule="nonzero"/><path fill="#000000" fill-opacity="0.0" d="m200.05385 148.01323l61.952744 0l0 26.141724l-61.952744 0z" fill-rule="evenodd"/><path fill="#000000" d="m232.26926 154.73721l-0.984375 4.28125l-0.359375 0l-0.03125 -1.0625q-0.0625 -0.59375 -0.234375 -1.046875q-0.171875 -0.46875 -0.53125 -0.796875q-0.34375 -0.34375 -0.890625 -0.53125q-0.53125 -0.1875 -1.1875 -0.1875q-1.75 0 -3.046875 0.953125q-1.671875 1.21875 -2.625 3.453125q-0.78125 1.828125 -0.78125 3.71875q0 1.921875 1.125 3.078125q1.125 1.140625 2.921875 1.140625q1.359375 0 2.40625 -0.609375q1.0625 -0.609375 1.984375 -1.859375l0.453125 0q-1.078125 1.703125 -2.390625 2.515625q-1.296875 0.796875 -3.125 0.796875q-1.625 0 -2.875 -0.671875q-1.25 -0.6875 -1.90625 -1.90625q-0.65625 -1.234375 -0.65625 -2.65625q0 -2.15625 1.15625 -4.203125q1.171875 -2.0625 3.1875 -3.234375q2.03125 -1.171875 4.09375 -1.171875q0.96875 0 2.171875 0.453125q0.53125 0.203125 0.765625 0.203125q0.234375 0 0.40625 -0.09375q0.171875 -0.109375 0.59375 -0.5625l0.359375 0z" fill-rule="nonzero"/><path fill="#000000" d="m238.84348 154.11221l-3.65625 5.09375l-1.28125 0l2.671875 -5.09375l2.265625 0z" fill-rule="nonzero"/><path fill="#000000" d="m243.68182 158.58096l-1.859375 6.375l1.15625 0l-0.25 0.890625l-1.171875 0l-0.75 2.609375l-1.0625 0l0.765625 -2.609375l-3.515625 0l0.3125 -1.0l5.828125 -6.265625l0.546875 0zm-1.59375 1.84375l-4.171875 4.53125l2.875 0l1.296875 -4.53125z" fill-rule="nonzero"/><path fill="#000000" fill-opacity="0.0" d="m259.10602 148.01323l61.95276 0l0 26.141724l-61.95276 0z" fill-rule="evenodd"/><path fill="#000000" d="m291.32144 154.73721l-0.984375 4.28125l-0.359375 0l-0.03125 -1.0625q-0.0625 -0.59375 -0.234375 -1.046875q-0.171875 -0.46875 -0.53125 -0.796875q-0.34375 -0.34375 -0.890625 -0.53125q-0.53125 -0.1875 -1.1875 -0.1875q-1.75 0 -3.046875 0.953125q-1.671875 1.21875 -2.625 3.453125q-0.78125 1.828125 -0.78125 3.71875q0 1.921875 1.125 3.078125q1.125 1.140625 2.921875 1.140625q1.359375 0 2.40625 -0.609375q1.0625 -0.609375 1.984375 -1.859375l0.453125 0q-1.078125 1.703125 -2.390625 2.515625q-1.296875 0.796875 -3.125 0.796875q-1.625 0 -2.875 -0.671875q-1.25 -0.6875 -1.90625 -1.90625q-0.65625 -1.234375 -0.65625 -2.65625q0 -2.15625 1.15625 -4.203125q1.171875 -2.0625 3.1875 -3.234375q2.03125 -1.171875 4.09375 -1.171875q0.96875 0 2.171875 0.453125q0.53125 0.203125 0.765625 0.203125q0.234375 0 0.40625 -0.09375q0.171875 -0.109375 0.59375 -0.5625l0.359375 0z" fill-rule="nonzero"/><path fill="#000000" d="m297.89566 154.11221l-3.65625 5.09375l-1.28125 0l2.671875 -5.09375l2.265625 0z" fill-rule="nonzero"/><path fill="#000000" d="m299.37463 158.58096l3.234375 0l-0.328125 1.1875l-2.90625 0l-0.546875 1.1875q1.171875 0.1875 1.8125 0.71875q1.0 0.84375 1.0 2.34375q0 1.0 -0.375 1.8125q-0.375 0.796875 -0.90625 1.34375q-0.53125 0.53125 -1.140625 0.859375q-0.828125 0.421875 -1.671875 0.421875q-0.71875 0 -1.140625 -0.3125q-0.296875 -0.21875 -0.296875 -0.546875q0 -0.25 0.1875 -0.4375q0.1875 -0.1875 0.46875 -0.1875q0.375 0 0.84375 0.375q0.28125 0.25 0.46875 0.328125q0.15625 0.0625 0.359375 0.0625q0.8125 0 1.484375 -0.796875q0.6875 -0.8125 0.6875 -2.109375q0 -0.890625 -0.375 -1.515625q-0.359375 -0.640625 -0.921875 -0.890625q-0.546875 -0.265625 -1.484375 -0.359375l1.546875 -3.484375z" fill-rule="nonzero"/><path fill="#000000" fill-opacity="0.0" d="m502.89688 -0.605231l59.433075 0l0 26.141731l-59.433075 0z" fill-rule="evenodd"/><path fill="#000000" d="m536.35754 6.1187587l-0.984375 4.2812495l-0.359375 0l-0.03125 -1.0625q-0.0625 -0.59375 -0.234375 -1.046875q-0.171875 -0.46874952 -0.53125 -0.7968745q-0.34375 -0.34375 -0.890625 -0.53125q-0.53125 -0.1875 -1.1875 -0.1875q-1.75 0 -3.046875 0.953125q-1.671875 1.2187495 -2.625 3.4531245q-0.78125 1.828125 -0.78125 3.71875q0 1.921876 1.125 3.078126q1.125 1.140625 2.921875 1.140625q1.359375 0 2.40625 -0.609375q1.0625 -0.609375 1.984375 -1.859375l0.453125 0q-1.078125 1.703125 -2.390625 2.515625q-1.296875 0.796875 -3.125 0.796875q-1.625 0 -2.875 -0.671875q-1.25 -0.6875 -1.90625 -1.90625q-0.65625 -1.234375 -0.65625 -2.656251q0 -2.15625 1.15625 -4.203125q1.171875 -2.0625 3.1875 -3.2343745q2.03125 -1.171875 4.09375 -1.171875q0.96875 0 2.171875 0.453125q0.53125 0.203125 0.765625 0.203125q0.234375 0 0.40625 -0.09375q0.171875 -0.109375 0.59375 -0.5625l0.359375 0z" fill-rule="nonzero"/><path fill="#000000" d="m541.74426 9.759383l-2.3125 8.031251q-0.203125 0.703125 -0.203125 1.015625q0 0.265625 0.1875 0.40625q0.1875 0.140625 0.859375 0.1875l-0.078125 0.265625l-3.6875 0l0.109375 -0.265625q0.578125 -0.015625 0.765625 -0.09375q0.296875 -0.125 0.453125 -0.34375q0.234375 -0.328125 0.484375 -1.171875l1.65625 -5.765626q0.15625 -0.53125 0.15625 -0.609375q0.03125 -0.140625 0.03125 -0.265625q0 -0.265625 -0.140625 -0.40625q-0.140625 -0.140625 -0.375 -0.140625q-0.1875 0 -0.578125 0.09375l-0.09375 -0.265625l2.421875 -0.671875l0.34375 0z" fill-rule="nonzero"/><path fill="#000000" fill-opacity="0.0" d="m550.6426 -0.605231l59.433044 0l0 26.141731l-59.433044 0z" fill-rule="evenodd"/><path fill="#000000" d="m584.1032 6.1187587l-0.984375 4.2812495l-0.359375 0l-0.03125 -1.0625q-0.0625 -0.59375 -0.234375 -1.046875q-0.171875 -0.46874952 -0.53125 -0.7968745q-0.34375 -0.34375 -0.890625 -0.53125q-0.53125 -0.1875 -1.1875 -0.1875q-1.75 0 -3.046875 0.953125q-1.671875 1.2187495 -2.625 3.4531245q-0.78125 1.828125 -0.78125 3.71875q0 1.921876 1.125 3.078126q1.125 1.140625 2.921875 1.140625q1.359375 0 2.40625 -0.609375q1.0625 -0.609375 1.984375 -1.859375l0.453125 0q-1.078125 1.703125 -2.390625 2.515625q-1.296875 0.796875 -3.125 0.796875q-1.625 0 -2.875 -0.671875q-1.25 -0.6875 -1.90625 -1.90625q-0.65625 -1.234375 -0.65625 -2.656251q0 -2.15625 1.15625 -4.203125q1.171875 -2.0625 3.1875 -3.2343745q2.03125 -1.171875 4.09375 -1.171875q0.96875 0 2.171875 0.453125q0.53125 0.203125 0.765625 0.203125q0.234375 0 0.40625 -0.09375q0.171875 -0.109375 0.59375 -0.5625l0.359375 0z" fill-rule="nonzero"/><path fill="#000000" d="m588.4274 19.665634l-4.828125 0l0 -0.265625q3.6875 -3.234375 4.875 -5.078126q0.546875 -0.84375 0.546875 -1.78125q0 -0.75 -0.453125 -1.21875q-0.453125 -0.46875 -1.1875 -0.46875q-1.015625 0 -1.65625 0.96875l-0.25 -0.109375q0.359375 -0.921875 1.0625 -1.4375q0.703125 -0.515625 1.515625 -0.515625q0.921875 0 1.546875 0.640625q0.640625 0.625 0.640625 1.53125q0 0.625 -0.234375 1.171875q-0.328125 0.828125 -1.265625 1.875q-1.390625 1.578126 -3.734375 3.656251l2.4375 0q0.578125 0 0.953125 -0.25q0.390625 -0.25 0.546875 -0.65625l0.296875 0l-0.8125 1.9375z" fill-rule="nonzero"/><path fill="#000000" fill-opacity="0.0" d="m598.38824 -0.605231l59.433044 0l0 26.141731l-59.433044 0z" fill-rule="evenodd"/><path fill="#000000" d="m631.8489 6.1187587l-0.984375 4.2812495l-0.359375 0l-0.03125 -1.0625q-0.0625 -0.59375 -0.234375 -1.046875q-0.171875 -0.46874952 -0.53125 -0.7968745q-0.34375 -0.34375 -0.890625 -0.53125q-0.53125 -0.1875 -1.1875 -0.1875q-1.75 0 -3.046875 0.953125q-1.671875 1.2187495 -2.625 3.4531245q-0.78125 1.828125 -0.78125 3.71875q0 1.921876 1.125 3.078126q1.125 1.140625 2.921875 1.140625q1.359375 0 2.40625 -0.609375q1.0625 -0.609375 1.984375 -1.859375l0.453125 0q-1.078125 1.703125 -2.390625 2.515625q-1.296875 0.796875 -3.125 0.796875q-1.625 0 -2.875 -0.671875q-1.25 -0.6875 -1.90625 -1.90625q-0.65625 -1.234375 -0.65625 -2.656251q0 -2.15625 1.15625 -4.203125q1.171875 -2.0625 3.1875 -3.2343745q2.03125 -1.171875 4.09375 -1.171875q0.96875 0 2.171875 0.453125q0.53125 0.203125 0.765625 0.203125q0.234375 0 0.40625 -0.09375q0.171875 -0.109375 0.59375 -0.5625l0.359375 0z" fill-rule="nonzero"/><path fill="#000000" d="m633.345 14.368758l0 -0.21875q1.734375 -0.265625 2.59375 -1.03125q0.609375 -0.53125 0.609375 -1.296875q0 -0.5625 -0.359375 -0.921875q-0.359375 -0.375 -0.859375 -0.375q-0.8125 0 -1.421875 1.0l-0.265625 -0.078125q0.359375 -0.828125 0.9375 -1.25q0.59375 -0.4375 1.296875 -0.4375q0.84375 0 1.359375 0.515625q0.515625 0.5 0.515625 1.265625q0 0.65625 -0.484375 1.265625q-0.484375 0.609375 -1.6875 1.09375q0.75 0.3125 1.125 0.890625q0.375 0.5625 0.375 1.375001q0 0.890625 -0.515625 1.796875q-0.515625 0.890625 -1.40625 1.390625q-0.890625 0.484375 -1.890625 0.484375q-0.890625 0 -1.359375 -0.3125q-0.3125 -0.21875 -0.3125 -0.5q0 -0.25 0.1875 -0.421875q0.1875 -0.1875 0.4375 -0.1875q0.1875 0 0.375 0.0625q0.125 0.03125 0.5625 0.28125q0.453125 0.25 0.703125 0.328125q0.25 0.078125 0.515625 0.078125q0.640625 0 1.0625 -0.734375q0.421875 -0.75 0.421875 -1.59375q0 -0.6875 -0.296875 -1.218751q-0.28125 -0.546875 -0.890625 -0.875q-0.59375 -0.34375 -1.328125 -0.375z" fill-rule="nonzero"/><path fill="#000000" fill-opacity="0.0" d="m646.1339 -0.605231l59.433044 0l0 26.141731l-59.433044 0z" fill-rule="evenodd"/><path fill="#000000" d="m679.5946 6.1187587l-0.984375 4.2812495l-0.359375 0l-0.03125 -1.0625q-0.0625 -0.59375 -0.234375 -1.046875q-0.171875 -0.46874952 -0.53125 -0.7968745q-0.34375 -0.34375 -0.890625 -0.53125q-0.53125 -0.1875 -1.1875 -0.1875q-1.75 0 -3.046875 0.953125q-1.671875 1.2187495 -2.625 3.4531245q-0.78125 1.828125 -0.78125 3.71875q0 1.921876 1.125 3.078126q1.125 1.140625 2.921875 1.140625q1.359375 0 2.40625 -0.609375q1.0625 -0.609375 1.984375 -1.859375l0.453125 0q-1.078125 1.703125 -2.390625 2.515625q-1.296875 0.796875 -3.125 0.796875q-1.625 0 -2.875 -0.671875q-1.25 -0.6875 -1.90625 -1.90625q-0.65625 -1.234375 -0.65625 -2.656251q0 -2.15625 1.15625 -4.203125q1.171875 -2.0625 3.1875 -3.2343745q2.03125 -1.171875 4.09375 -1.171875q0.96875 0 2.171875 0.453125q0.53125 0.203125 0.765625 0.203125q0.234375 0 0.40625 -0.09375q0.171875 -0.109375 0.59375 -0.5625l0.359375 0z" fill-rule="nonzero"/><path fill="#000000" d="m685.99695 9.962508l-1.859375 6.375001l1.15625 0l-0.25 0.890625l-1.171875 0l-0.75 2.609375l-1.0625 0l0.765625 -2.609375l-3.515625 0l0.3125 -1.0l5.828125 -6.265626l0.546875 0zm-1.59375 1.84375l-4.171875 4.531251l2.875 0l1.296875 -4.531251z" fill-rule="nonzero"/><path fill="#000000" fill-opacity="0.0" d="m693.8796 -0.605231l59.433105 0l0 26.141731l-59.433105 0z" fill-rule="evenodd"/><path fill="#000000" d="m727.3403 6.1187587l-0.984375 4.2812495l-0.359375 0l-0.03125 -1.0625q-0.0625 -0.59375 -0.234375 -1.046875q-0.171875 -0.46874952 -0.53125 -0.7968745q-0.34375 -0.34375 -0.890625 -0.53125q-0.53125 -0.1875 -1.1875 -0.1875q-1.75 0 -3.046875 0.953125q-1.671875 1.2187495 -2.625 3.4531245q-0.78125 1.828125 -0.78125 3.71875q0 1.921876 1.125 3.078126q1.125 1.140625 2.921875 1.140625q1.359375 0 2.40625 -0.609375q1.0625 -0.609375 1.984375 -1.859375l0.453125 0q-1.078125 1.703125 -2.390625 2.515625q-1.296875 0.796875 -3.125 0.796875q-1.625 0 -2.875 -0.671875q-1.25 -0.6875 -1.90625 -1.90625q-0.65625 -1.234375 -0.65625 -2.656251q0 -2.15625 1.15625 -4.203125q1.171875 -2.0625 3.1875 -3.2343745q2.03125 -1.171875 4.09375 -1.171875q0.96875 0 2.171875 0.453125q0.53125 0.203125 0.765625 0.203125q0.234375 0 0.40625 -0.09375q0.171875 -0.109375 0.59375 -0.5625l0.359375 0z" fill-rule="nonzero"/><path fill="#000000" d="m730.38324 9.962508l3.234375 0l-0.328125 1.1875l-2.90625 0l-0.546875 1.1875q1.171875 0.1875 1.8125 0.71875q1.0 0.84375 1.0 2.34375q0 1.000001 -0.375 1.812501q-0.375 0.796875 -0.90625 1.34375q-0.53125 0.53125 -1.140625 0.859375q-0.828125 0.421875 -1.671875 0.421875q-0.71875 0 -1.140625 -0.3125q-0.296875 -0.21875 -0.296875 -0.546875q0 -0.25 0.1875 -0.4375q0.1875 -0.1875 0.46875 -0.1875q0.375 0 0.84375 0.375q0.28125 0.25 0.46875 0.328125q0.15625 0.0625 0.359375 0.0625q0.8125 0 1.484375 -0.796875q0.6875 -0.8125 0.6875 -2.109375q0 -0.89062595 -0.375 -1.515626q-0.359375 -0.640625 -0.921875 -0.890625q-0.546875 -0.265625 -1.484375 -0.359375l1.546875 -3.484375z" fill-rule="nonzero"/><path fill="#000000" fill-opacity="0.0" d="m741.62524 -0.605231l59.433105 0l0 26.141731l-59.433105 0z" fill-rule="evenodd"/><path fill="#000000" d="m775.08594 6.1187587l-0.984375 4.2812495l-0.359375 0l-0.03125 -1.0625q-0.0625 -0.59375 -0.234375 -1.046875q-0.171875 -0.46874952 -0.53125 -0.7968745q-0.34375 -0.34375 -0.890625 -0.53125q-0.53125 -0.1875 -1.1875 -0.1875q-1.75 0 -3.046875 0.953125q-1.671875 1.2187495 -2.625 3.4531245q-0.78125 1.828125 -0.78125 3.71875q0 1.921876 1.125 3.078126q1.125 1.140625 2.921875 1.140625q1.359375 0 2.40625 -0.609375q1.0625 -0.609375 1.984375 -1.859375l0.453125 0q-1.078125 1.703125 -2.390625 2.515625q-1.296875 0.796875 -3.125 0.796875q-1.625 0 -2.875 -0.671875q-1.25 -0.6875 -1.90625 -1.90625q-0.65625 -1.234375 -0.65625 -2.656251q0 -2.15625 1.15625 -4.203125q1.171875 -2.0625 3.1875 -3.2343745q2.03125 -1.171875 4.09375 -1.171875q0.96875 0 2.171875 0.453125q0.53125 0.203125 0.765625 0.203125q0.234375 0 0.40625 -0.09375q0.171875 -0.109375 0.59375 -0.5625l0.359375 0z" fill-rule="nonzero"/><path fill="#000000" d="m782.0508 9.759383l0 0.28125q-1.234375 0.28125 -2.390625 1.203125q-1.140625 0.921875 -2.0 2.359375q0.765625 -0.328125 1.25 -0.328125q0.90625 0 1.546875 0.65625q0.640625 0.65625 0.640625 1.78125q0 1.703126 -1.109375 2.921876q-1.09375 1.203125 -2.359375 1.203125q-1.15625 0 -1.765625 -0.84375q-0.59375 -0.859375 -0.59375 -1.984375q0 -1.468751 0.671875 -2.890626q0.6875 -1.4375 1.84375 -2.453125q1.171875 -1.03125 2.421875 -1.515625q0.75 -0.28125 1.84375 -0.390625zm-4.734375 4.453125q-1.03125 2.171876 -1.03125 3.656251q0 0.765625 0.390625 1.203125q0.390625 0.4375 0.890625 0.4375q0.8125 0 1.515625 -1.1875q0.71875 -1.203125 0.71875 -2.781251q0 -0.84375 -0.421875 -1.296875q-0.40625 -0.46875 -0.984375 -0.46875q-0.25 0 -0.484375 0.09375q-0.21875 0.078125 -0.59375 0.34375z" fill-rule="nonzero"/><path fill="#000000" fill-opacity="0.0" d="m502.89688 148.01552l61.95273 0l0 26.141739l-61.95273 0z" fill-rule="evenodd"/><path fill="#000000" d="m535.1123 154.7395l-0.984375 4.28125l-0.359375 0l-0.03125 -1.0625q-0.0625 -0.59375 -0.234375 -1.046875q-0.171875 -0.46875 -0.53125 -0.796875q-0.34375 -0.34375 -0.890625 -0.53125q-0.53125 -0.1875 -1.1875 -0.1875q-1.75 0 -3.046875 0.953125q-1.671875 1.21875 -2.625 3.453125q-0.78125 1.828125 -0.78125 3.71875q0 1.921875 1.125 3.078125q1.125 1.140625 2.921875 1.140625q1.359375 0 2.40625 -0.609375q1.0625 -0.609375 1.984375 -1.859375l0.453125 0q-1.078125 1.703125 -2.390625 2.515625q-1.296875 0.796875 -3.125 0.796875q-1.625 0 -2.875 -0.671875q-1.25 -0.6875 -1.90625 -1.90625q-0.65625 -1.234375 -0.65625 -2.65625q0 -2.15625 1.15625 -4.203125q1.171875 -2.0625 3.1875 -3.234375q2.03125 -1.171875 4.09375 -1.171875q0.96875 0 2.171875 0.453125q0.53125 0.203125 0.765625 0.203125q0.234375 0 0.40625 -0.09375q0.171875 -0.109375 0.59375 -0.5625l0.359375 0z" fill-rule="nonzero"/><path fill="#000000" d="m541.6865 154.1145l-3.65625 5.09375l-1.28125 0l2.671875 -5.09375l2.265625 0z" fill-rule="nonzero"/><path fill="#000000" d="m545.5092 158.38013l-2.3125 8.03125q-0.203125 0.703125 -0.203125 1.015625q0 0.265625 0.1875 0.40625q0.1875 0.140625 0.859375 0.1875l-0.078125 0.265625l-3.6875 0l0.109375 -0.265625q0.578125 -0.015625 0.765625 -0.09375q0.296875 -0.125 0.453125 -0.34375q0.234375 -0.328125 0.484375 -1.171875l1.65625 -5.765625q0.15625 -0.53125 0.15625 -0.609375q0.03125 -0.140625 0.03125 -0.265625q0 -0.265625 -0.140625 -0.40625q-0.140625 -0.140625 -0.375 -0.140625q-0.1875 0 -0.578125 0.09375l-0.09375 -0.265625l2.421875 -0.671875l0.34375 0z" fill-rule="nonzero"/><path fill="#000000" fill-opacity="0.0" d="m561.94904 148.01323l61.95276 0l0 26.141724l-61.95276 0z" fill-rule="evenodd"/><path fill="#000000" d="m594.1644 154.73721l-0.984375 4.28125l-0.359375 0l-0.03125 -1.0625q-0.0625 -0.59375 -0.234375 -1.046875q-0.171875 -0.46875 -0.53125 -0.796875q-0.34375 -0.34375 -0.890625 -0.53125q-0.53125 -0.1875 -1.1875 -0.1875q-1.75 0 -3.046875 0.953125q-1.671875 1.21875 -2.625 3.453125q-0.78125 1.828125 -0.78125 3.71875q0 1.921875 1.125 3.078125q1.125 1.140625 2.921875 1.140625q1.359375 0 2.40625 -0.609375q1.0625 -0.609375 1.984375 -1.859375l0.453125 0q-1.078125 1.703125 -2.390625 2.515625q-1.296875 0.796875 -3.125 0.796875q-1.625 0 -2.875 -0.671875q-1.25 -0.6875 -1.90625 -1.90625q-0.65625 -1.234375 -0.65625 -2.65625q0 -2.15625 1.15625 -4.203125q1.171875 -2.0625 3.1875 -3.234375q2.03125 -1.171875 4.09375 -1.171875q0.96875 0 2.171875 0.453125q0.53125 0.203125 0.765625 0.203125q0.234375 0 0.40625 -0.09375q0.171875 -0.109375 0.59375 -0.5625l0.359375 0z" fill-rule="nonzero"/><path fill="#000000" d="m600.73865 154.11221l-3.65625 5.09375l-1.28125 0l2.671875 -5.09375l2.265625 0z" fill-rule="nonzero"/><path fill="#000000" d="m603.4989 168.28409l-4.828125 0l0 -0.265625q3.6875 -3.234375 4.875 -5.078125q0.546875 -0.84375 0.546875 -1.78125q0 -0.75 -0.453125 -1.21875q-0.453125 -0.46875 -1.1875 -0.46875q-1.015625 0 -1.65625 0.96875l-0.25 -0.109375q0.359375 -0.921875 1.0625 -1.4375q0.703125 -0.515625 1.515625 -0.515625q0.921875 0 1.546875 0.640625q0.640625 0.625 0.640625 1.53125q0 0.625 -0.234375 1.171875q-0.328125 0.828125 -1.265625 1.875q-1.390625 1.578125 -3.734375 3.65625l2.4375 0q0.578125 0 0.953125 -0.25q0.390625 -0.25 0.546875 -0.65625l0.296875 0l-0.8125 1.9375z" fill-rule="nonzero"/><path fill="#000000" fill-opacity="0.0" d="m621.0012 148.01323l61.95276 0l0 26.141724l-61.95276 0z" fill-rule="evenodd"/><path fill="#000000" d="m653.2166 154.73721l-0.984375 4.28125l-0.359375 0l-0.03125 -1.0625q-0.0625 -0.59375 -0.234375 -1.046875q-0.171875 -0.46875 -0.53125 -0.796875q-0.34375 -0.34375 -0.890625 -0.53125q-0.53125 -0.1875 -1.1875 -0.1875q-1.75 0 -3.046875 0.953125q-1.671875 1.21875 -2.625 3.453125q-0.78125 1.828125 -0.78125 3.71875q0 1.921875 1.125 3.078125q1.125 1.140625 2.921875 1.140625q1.359375 0 2.40625 -0.609375q1.0625 -0.609375 1.984375 -1.859375l0.453125 0q-1.078125 1.703125 -2.390625 2.515625q-1.296875 0.796875 -3.125 0.796875q-1.625 0 -2.875 -0.671875q-1.25 -0.6875 -1.90625 -1.90625q-0.65625 -1.234375 -0.65625 -2.65625q0 -2.15625 1.15625 -4.203125q1.171875 -2.0625 3.1875 -3.234375q2.03125 -1.171875 4.09375 -1.171875q0.96875 0 2.171875 0.453125q0.53125 0.203125 0.765625 0.203125q0.234375 0 0.40625 -0.09375q0.171875 -0.109375 0.59375 -0.5625l0.359375 0z" fill-rule="nonzero"/><path fill="#000000" d="m659.79083 154.11221l-3.65625 5.09375l-1.28125 0l2.671875 -5.09375l2.265625 0z" fill-rule="nonzero"/><path fill="#000000" d="m659.72296 162.98721l0 -0.21875q1.734375 -0.265625 2.59375 -1.03125q0.609375 -0.53125 0.609375 -1.296875q0 -0.5625 -0.359375 -0.921875q-0.359375 -0.375 -0.859375 -0.375q-0.8125 0 -1.421875 1.0l-0.265625 -0.078125q0.359375 -0.828125 0.9375 -1.25q0.59375 -0.4375 1.296875 -0.4375q0.84375 0 1.359375 0.515625q0.515625 0.5 0.515625 1.265625q0 0.65625 -0.484375 1.265625q-0.484375 0.609375 -1.6875 1.09375q0.75 0.3125 1.125 0.890625q0.375 0.5625 0.375 1.375q0 0.890625 -0.515625 1.796875q-0.515625 0.890625 -1.40625 1.390625q-0.890625 0.484375 -1.890625 0.484375q-0.890625 0 -1.359375 -0.3125q-0.3125 -0.21875 -0.3125 -0.5q0 -0.25 0.1875 -0.421875q0.1875 -0.1875 0.4375 -0.1875q0.1875 0 0.375 0.0625q0.125 0.03125 0.5625 0.28125q0.453125 0.25 0.703125 0.328125q0.25 0.078125 0.515625 0.078125q0.640625 0 1.0625 -0.734375q0.421875 -0.75 0.421875 -1.59375q0 -0.6875 -0.296875 -1.21875q-0.28125 -0.546875 -0.890625 -0.875q-0.59375 -0.34375 -1.328125 -0.375z" fill-rule="nonzero"/><path fill="#000000" fill-opacity="0.0" d="m680.0534 148.01323l61.95276 0l0 26.141724l-61.95276 0z" fill-rule="evenodd"/><path fill="#000000" d="m712.2688 154.73721l-0.984375 4.28125l-0.359375 0l-0.03125 -1.0625q-0.0625 -0.59375 -0.234375 -1.046875q-0.171875 -0.46875 -0.53125 -0.796875q-0.34375 -0.34375 -0.890625 -0.53125q-0.53125 -0.1875 -1.1875 -0.1875q-1.75 0 -3.046875 0.953125q-1.671875 1.21875 -2.625 3.453125q-0.78125 1.828125 -0.78125 3.71875q0 1.921875 1.125 3.078125q1.125 1.140625 2.921875 1.140625q1.359375 0 2.40625 -0.609375q1.0625 -0.609375 1.984375 -1.859375l0.453125 0q-1.078125 1.703125 -2.390625 2.515625q-1.296875 0.796875 -3.125 0.796875q-1.625 0 -2.875 -0.671875q-1.25 -0.6875 -1.90625 -1.90625q-0.65625 -1.234375 -0.65625 -2.65625q0 -2.15625 1.15625 -4.203125q1.171875 -2.0625 3.1875 -3.234375q2.03125 -1.171875 4.09375 -1.171875q0.96875 0 2.171875 0.453125q0.53125 0.203125 0.765625 0.203125q0.234375 0 0.40625 -0.09375q0.171875 -0.109375 0.59375 -0.5625l0.359375 0z" fill-rule="nonzero"/><path fill="#000000" d="m718.843 154.11221l-3.65625 5.09375l-1.28125 0l2.671875 -5.09375l2.265625 0z" fill-rule="nonzero"/><path fill="#000000" d="m723.6814 158.58096l-1.859375 6.375l1.15625 0l-0.25 0.890625l-1.171875 0l-0.75 2.609375l-1.0625 0l0.765625 -2.609375l-3.515625 0l0.3125 -1.0l5.828125 -6.265625l0.546875 0zm-1.59375 1.84375l-4.171875 4.53125l2.875 0l1.296875 -4.53125z" fill-rule="nonzero"/><path fill="#000000" fill-opacity="0.0" d="m739.1056 148.01323l61.95276 0l0 26.141724l-61.95276 0z" fill-rule="evenodd"/><path fill="#000000" d="m771.321 154.73721l-0.984375 4.28125l-0.359375 0l-0.03125 -1.0625q-0.0625 -0.59375 -0.234375 -1.046875q-0.171875 -0.46875 -0.53125 -0.796875q-0.34375 -0.34375 -0.890625 -0.53125q-0.53125 -0.1875 -1.1875 -0.1875q-1.75 0 -3.046875 0.953125q-1.671875 1.21875 -2.625 3.453125q-0.78125 1.828125 -0.78125 3.71875q0 1.921875 1.125 3.078125q1.125 1.140625 2.921875 1.140625q1.359375 0 2.40625 -0.609375q1.0625 -0.609375 1.984375 -1.859375l0.453125 0q-1.078125 1.703125 -2.390625 2.515625q-1.296875 0.796875 -3.125 0.796875q-1.625 0 -2.875 -0.671875q-1.25 -0.6875 -1.90625 -1.90625q-0.65625 -1.234375 -0.65625 -2.65625q0 -2.15625 1.15625 -4.203125q1.171875 -2.0625 3.1875 -3.234375q2.03125 -1.171875 4.09375 -1.171875q0.96875 0 2.171875 0.453125q0.53125 0.203125 0.765625 0.203125q0.234375 0 0.40625 -0.09375q0.171875 -0.109375 0.59375 -0.5625l0.359375 0z" fill-rule="nonzero"/><path fill="#000000" d="m777.8952 154.11221l-3.65625 5.09375l-1.28125 0l2.671875 -5.09375l2.265625 0z" fill-rule="nonzero"/><path fill="#000000" d="m779.3742 158.58096l3.234375 0l-0.328125 1.1875l-2.90625 0l-0.546875 1.1875q1.171875 0.1875 1.8125 0.71875q1.0 0.84375 1.0 2.34375q0 1.0 -0.375 1.8125q-0.375 0.796875 -0.90625 1.34375q-0.53125 0.53125 -1.140625 0.859375q-0.828125 0.421875 -1.671875 0.421875q-0.71875 0 -1.140625 -0.3125q-0.296875 -0.21875 -0.296875 -0.546875q0 -0.25 0.1875 -0.4375q0.1875 -0.1875 0.46875 -0.1875q0.375 0 0.84375 0.375q0.28125 0.25 0.46875 0.328125q0.15625 0.0625 0.359375 0.0625q0.8125 0 1.484375 -0.796875q0.6875 -0.8125 0.6875 -2.109375q0 -0.890625 -0.375 -1.515625q-0.359375 -0.640625 -0.921875 -0.890625q-0.546875 -0.265625 -1.484375 -0.359375l1.546875 -3.484375z" fill-rule="nonzero"/><path fill="#000000" fill-opacity="0.0" d="m-27.490814 25.5958l77.13386 0l0 54.267715l-77.13386 0z" fill-rule="evenodd"/><path fill="#000000" d="m17.416393 46.08466l0 3.828125l-0.375 0q-0.328125 -1.328125 -0.734375 -1.90625q-0.40624905 -0.578125 -1.124999 -0.921875q-0.390625 -0.1875 -1.375 -0.1875l-1.046875 0l0 10.890625q0 1.09375 0.109375 1.359375q0.125 0.265625 0.46875 0.46875q0.359375 0.203125 0.953125 0.203125l0.46875 0l0 0.390625l-7.3906255 0l0 -0.390625l0.46875 0q0.6093755 0 0.9843755 -0.21875q0.28125 -0.140625 0.4375 -0.5q0.109375 -0.25 0.109375 -1.3125l0 -10.890625l-1.015625 0q-1.4375005 0 -2.0781255 0.609375q-0.90625 0.84375 -1.140625 2.40625l-0.40625 0l0 -3.828125l12.6875 0z" fill-rule="nonzero"/><path fill="#000000" fill-opacity="0.0" d="m-27.490814 173.56168l77.13386 0l0 54.267715l-77.13386 0z" fill-rule="evenodd"/><path fill="#000000" d="m15.160893 193.73804l0.125 4.703125l-0.4375 0q-0.296875 -1.765625 -1.484375 -2.84375q-1.171875 -1.078125 -2.546875 -1.078125q-1.0625 0 -1.6875 0.5625q-0.625 0.5625 -0.625 1.3125q0 0.46875 0.21875 0.828125q0.3125 0.484375 0.96875 0.96875q0.5 0.34375 2.265625 1.21875q2.484375 1.21875 3.34375 2.296875q0.84374905 1.078125 0.84374905 2.484375q0 1.765625 -1.374999 3.046875q-1.375 1.265625 -3.5 1.265625q-0.671875 0 -1.265625 -0.140625q-0.59375 -0.125 -1.484375 -0.5q-0.5 -0.203125 -0.8281255 -0.203125q-0.265625 0 -0.578125 0.203125q-0.296875 0.203125 -0.484375 0.640625l-0.375 0l0 -5.34375l0.375 0q0.46875 2.25 1.7656255 3.4375q1.3125 1.1875 2.828125 1.1875q1.15625 0 1.84375 -0.640625q0.703125 -0.640625 0.703125 -1.484375q0 -0.5 -0.265625 -0.96875q-0.265625 -0.46875 -0.8125 -0.890625q-0.53125 -0.421875 -1.90625 -1.09375q-1.9375 -0.953125 -2.78125 -1.609375q-0.8437505 -0.671875 -1.2968755 -1.484375q-0.453125 -0.828125 -0.453125 -1.828125q0 -1.671875 1.234375 -2.859375q1.2500005 -1.1875 3.1406255 -1.1875q0.6875 0 1.328125 0.15625q0.484375 0.125 1.1875 0.46875q0.703125 0.34375 0.984375 0.34375q0.28125 0 0.4375 -0.171875q0.15625 -0.171875 0.28125 -0.796875l0.3125 0z" fill-rule="nonzero"/></g></svg>